<?xml version="1.0" encoding="UTF-8"?>
<svg width="57px" height="50px" viewBox="0 0 57 50" version="1.1" xmlns="http://www.w3.org/2000/svg" xmlns:xlink="http://www.w3.org/1999/xlink">
    <!-- Generator: Sketch 46.2 (44496) - http://www.bohemiancoding.com/sketch -->
    <title>icon/cook</title>
    <desc>Created with Sketch.</desc>
    <defs></defs>
    <g id="Page-1" stroke="none" stroke-width="1" fill="none" fill-rule="evenodd">
        <g id="work" transform="translate(-821.000000, -586.000000)" fill="#FFFFFF">
            <g id="icons/menu/type" transform="translate(821.000000, 586.849667)">
                <g id="chef-(1)">
                    <path d="M47.8638702,40.0340426 L9.06542553,40.0340426 C8.35171277,40.0340426 7.77310213,40.5314447 7.77176809,41.1449872 L7.76667447,44.3877447 C7.7654617,45.6007553 8.31363191,46.7411 9.31040426,47.599017 C10.3083894,48.4580809 11.6335787,48.9304617 13.0447532,48.9304617 L43.8793277,48.9304617 C46.789966,48.9304617 49.1574064,46.8952936 49.1574064,44.393166 L49.1574064,41.1460298 C49.1574064,40.5314447 48.578917,40.0340426 47.8638702,40.0340426 Z" id="Shape" fill-rule="nonzero"></path>
                    <path d="M42.6893617,4.4482617 C41.8973043,4.4482617 41.0836596,4.51665319 40.2221106,4.65458298 C37.262234,1.68758085 33.0201,0 28.4596149,0 C19.8995489,0 12.9362106,5.98602766 12.9362106,13.3446809 C12.9362106,13.9582234 12.3563872,14.4567723 11.6425532,14.4567723 C10.9288404,14.4567723 10.3488957,13.9583277 10.3488957,13.3446809 C10.3488957,10.9370085 10.9932383,8.60752766 12.2640957,6.42150213 C12.4902766,6.03273404 12.4320638,5.56681702 12.1162596,5.22798723 C11.8004553,4.89134681 11.2836957,4.74142766 10.793617,4.84464043 C4.43799574,6.20757021 0,11.0749383 0,16.6808511 C0,21.3028021 3.03191489,25.5045 7.79202128,27.5819957 L7.77807447,36.6967255 C7.77807447,36.9910383 7.91329787,37.2745085 8.15585106,37.4840617 C8.39961702,37.6925723 8.72815532,37.8098596 9.07173191,37.8098596 L47.8638702,37.8098596 C48.578917,37.8098596 49.1575277,37.3124574 49.1575277,36.6977681 L49.1575277,27.5656277 C53.8999277,25.4827106 56.9192298,21.2874766 56.9192298,16.6807468 C56.9191085,9.93574043 50.5357149,4.4482617 42.6893617,4.4482617 Z M18.9317617,30.8856383 C18.6904213,31.0550532 18.3999638,31.1376234 18.1119319,31.1376234 C17.7380362,31.1376234 17.366566,30.9986511 17.1101872,30.7314447 C16.6831723,30.2829383 12.9362106,26.2734872 12.9362106,23.3531915 C12.9362106,22.7385021 13.5148213,22.2411 14.2298681,22.2411 C14.9449149,22.2411 15.5235255,22.7385021 15.5235255,23.3531915 C15.5235255,24.9626851 17.7242106,27.8666128 19.1112511,29.3196191 C19.5633702,29.7953362 19.4838128,30.4957234 18.9317617,30.8856383 Z M29.7531511,30.0255319 C29.7531511,30.6402213 29.1745404,31.1376234 28.4594936,31.1376234 C27.7444468,31.1376234 27.1659574,30.6402213 27.1659574,30.0255319 L27.1659574,23.3531915 C27.1659574,22.7385021 27.7445681,22.2411 28.4596149,22.2411 C29.1746617,22.2411 29.7532723,22.7385021 29.7532723,23.3531915 L29.7532723,30.0255319 L29.7531511,30.0255319 Z M39.8090426,30.7314447 C39.5525426,30.9986511 39.1824064,31.1376234 38.8085106,31.1376234 C38.519266,31.1376234 38.2286872,31.0550532 37.9886809,30.8856383 C37.4366298,30.4957234 37.3557383,29.7953362 37.8079787,29.320766 C39.1951404,27.8644234 41.3957043,24.9572638 41.3957043,23.3531915 C41.3957043,22.7385021 41.9743149,22.2411 42.6893617,22.2411 C43.4044085,22.2411 43.9830191,22.7385021 43.9830191,23.3531915 C43.9830191,26.273383 40.2360574,30.2829383 39.8090426,30.7314447 Z" id="Shape" fill-rule="nonzero"></path>
                </g>
            </g>
        </g>
    </g>
</svg>