<?xml version="1.0" encoding="UTF-8"?>
<svg width="16px" height="40px" viewBox="0 0 16 40" version="1.1" xmlns="http://www.w3.org/2000/svg" xmlns:xlink="http://www.w3.org/1999/xlink">
    <!-- Generator: Sketch 46.2 (44496) - http://www.bohemiancoding.com/sketch -->
    <title>icons/menu/hud/minuteur</title>
    <desc>Created with Sketch.</desc>
    <defs></defs>
    <g id="Symbols" stroke="none" stroke-width="1" fill="none" fill-rule="evenodd">
        <g id="card/active/menu" transform="translate(-28.000000, -441.000000)">
            <g id="icons/menu/hud/minuteur" transform="translate(28.000000, 441.000000)">
                <g id="56122-themometer-with-low-temperature" transform="translate(0.472742, 0.000000)">
                    <path d="M8.73939192,28.9272445 C8.73939192,28.803373 8.73939192,28.803373 8.73939192,28.6795016 L8.73939192,22.4468115 C8.73939192,21.6970632 8.2439061,21.2015774 7.49415782,21.2015774 C6.74440954,21.2015774 6.24892372,21.6970632 6.24892372,22.4468115 L6.24892372,28.6795016 C6.24892372,28.8033078 6.24892372,28.8033078 6.24892372,28.9272445 C4.74942716,29.4292498 3.75845553,30.7983554 3.75845553,32.4152039 C3.75845553,34.5340577 5.38182354,36.1573605 7.50067737,36.1573605 C9.6195312,36.1573605 11.2428992,34.5340577 11.2428992,32.4152039 C11.2364449,30.7983554 10.2388885,29.4292498 8.73939192,28.9272445 Z" id="Shape" class="SVG-inside" fill="#96CF57" fill-rule="nonzero"></path>
                    <path d="M12.481679,26.8083906 C12.481679,26.5606477 12.481679,26.4367763 12.481679,26.1824486 L12.481679,4.98745594 C12.481679,2.24272529 10.2389537,0 7.49422302,0 C4.74949236,0 2.50676707,2.24272529 2.50676707,4.98745594 L2.50676707,26.1825138 C2.50676707,26.4303219 2.50676707,26.5541282 2.50676707,26.8084558 C1.00727051,28.1775614 0.0162988756,30.1725438 0.0162988756,32.4217886 C0.0162988756,36.53569 3.38038681,39.9062323 7.50074257,39.9062323 C11.6210983,39.9062323 14.9851863,36.5421444 14.9851863,32.4217886 C14.9786667,30.1724786 13.9811755,28.1774962 12.481679,26.8083906 Z M7.49422302,37.4091793 C4.74949236,37.4091793 2.50676707,35.1665193 2.50676707,32.4217234 C2.50676707,30.5506125 3.50425826,28.933764 4.99723527,28.0602095 L4.99723527,4.98745594 C4.99723527,3.61835039 6.11859791,2.49698775 7.48770347,2.49698775 C8.85680902,2.49698775 9.97817166,3.61835039 9.97817166,4.98745594 L9.97817166,28.0536247 C11.4776682,28.9272445 12.4686399,30.5440929 12.4686399,32.4152039 C12.481679,35.1599345 10.2388885,37.4091793 7.49422302,37.4091793 Z" id="Shape" fill="#000000" fill-rule="nonzero"></path>
                </g>
            </g>
        </g>
    </g>
</svg>