<?xml version="1.0" encoding="UTF-8"?>
<svg width="65px" height="52px" viewBox="0 0 65 52" version="1.1" xmlns="http://www.w3.org/2000/svg" xmlns:xlink="http://www.w3.org/1999/xlink">
    <!-- Generator: Sketch 46.2 (44496) - http://www.bohemiancoding.com/sketch -->
    <title>menu/pasta</title>
    <desc>Created with Sketch.</desc>
    <defs></defs>
    <g id="Symbols" stroke="none" stroke-width="1" fill="none" fill-rule="evenodd">
        <g id="card/active/menu" transform="translate(-33.000000, -84.000000)">
            <g id="icons/menu/pasta" transform="translate(33.472742, 84.785755)">
                <g id="spaghetti">
                    <g id="Group" transform="translate(14.250000, 26.246341)" fill-rule="nonzero" fill="#FFAB5F">
                        <ellipse id="Oval" cx="3.90375" cy="3.9053561" rx="3.87625" ry="3.85734146"></ellipse>
                        <ellipse id="Oval" cx="30.653125" cy="3.9053561" rx="3.87625" ry="3.85734146"></ellipse>
                    </g>
                    <path d="M28.582875,17.1422195 C29.284375,15.4253854 30.8715,14.2100927 32.72475,13.9712634 C33.21925,13.9074512 33.711125,14.1063512 34.0205,14.4955683 C35.179625,15.9537951 35.4645,17.925878 34.762625,19.6430854 C34.061125,21.3599195 32.474,22.575461 30.62075,22.8141659 C30.12625,22.877978 29.634625,22.6789537 29.3255,22.2901098 C28.165625,20.8318829 27.881125,18.859178 28.582875,17.1422195 Z" id="Shape" fill="#78B591" fill-rule="nonzero"></path>
                    <path d="M23.00425,23.4765439 C21.279,22.7778439 20.057875,21.1985854 19.817625,19.3545 C19.7535,18.8622878 19.9535,18.373061 20.3445,18.0651951 C21.80975,16.9113512 23.791625,16.628239 25.517375,17.3264415 C27.242625,18.0248927 28.464,19.6040268 28.703875,21.448361 C28.768,21.9403244 28.568,22.4295512 28.177375,22.7372927 C26.711875,23.891261 24.72975,24.1744976 23.00425,23.4765439 Z" id="Shape" fill="#B0CE6F" fill-rule="nonzero"></path>
                    <path d="M29.29075,25.227461 C29.163875,25.227461 29.035125,25.203578 28.9105,25.1530756 C28.393375,24.9441 28.144875,24.3572268 28.355,23.8427488 L30.71,18.0791268 C30.920125,17.5647732 31.50925,17.3169878 32.02675,17.526461 C32.54375,17.7354366 32.792375,18.3223098 32.58225,18.8367878 L30.227125,24.6004098 C30.067625,24.9907463 29.689625,25.227461 29.29075,25.227461 Z" id="Shape" fill="#659B7B" fill-rule="nonzero"></path>
                    <path d="M30.11775,23.7774439 C29.991,23.7774439 29.862125,23.753561 29.7375,23.7030585 L23.945875,21.3591732 C23.428875,21.1500732 23.18025,20.5633244 23.3905,20.0488463 C23.6005,19.5343683 24.190375,19.2867073 24.70725,19.4961805 L30.498875,21.8399415 C31.015875,22.0491659 31.2645,22.6357902 31.05425,23.1502683 C30.89475,23.5408537 30.51675,23.7774439 30.11775,23.7774439 Z" id="Shape" fill="#7E8E51" fill-rule="nonzero"></path>
                    <path d="M38.933375,27.0531366 C38.933375,24.9488268 37.21925,23.2430634 35.104625,23.2430634 C34.910125,23.2430634 34.7195,23.2574927 34.53275,23.2854805 C33.966125,21.886339 32.590125,20.8981829 30.98125,20.8981829 C29.384,20.8981829 28.01575,21.8717854 27.441375,23.2548805 C27.345875,23.2479146 27.2495,23.2430634 27.15225,23.2430634 C25.03775,23.2430634 23.323625,24.9488268 23.323625,27.0531366 C23.323625,27.0710488 23.324625,27.0888366 23.324875,27.107122 C21.816375,27.3821488 20.67275,28.6963317 20.67275,30.2770829 C20.67275,32.0576049 22.12325,33.5011537 23.9125,33.5011537 C25.501125,33.5011537 37.326625,33.5011537 38.93325,33.5011537 C40.722375,33.5011537 42.173125,32.0577293 42.173125,30.2770829 C42.17325,28.4964366 40.7225,27.0531366 38.933375,27.0531366 Z" id="Shape" fill="#EF645E" fill-rule="nonzero"></path>
                    <path d="M35.399125,27.0913244 L34.88525,27.0913244 C34.327125,27.0913244 33.874875,26.6410317 33.874875,26.0857537 C33.874875,25.5304756 34.327125,25.0803073 34.88525,25.0803073 L35.399125,25.0803073 C35.95725,25.0803073 36.4095,25.5303512 36.4095,26.0857537 C36.40975,26.6410317 35.957375,27.0913244 35.399125,27.0913244 Z" id="Shape" fill="#C14616" fill-rule="nonzero"></path>
                    <path d="M24.858875,31.6513463 C24.858875,30.0704707 26.002625,28.7564122 27.511125,28.481261 C27.510875,28.4632244 27.509625,28.4453122 27.509625,28.4272756 C27.509625,26.3230902 29.223875,24.6172024 31.338375,24.6172024 C31.43575,24.6172024 31.532125,24.6220537 31.627625,24.6290195 C32.062125,23.5821512 32.95225,22.7707537 34.052,22.4378854 C33.354375,21.504461 32.240125,20.8980585 30.98125,20.8980585 C29.384,20.8980585 28.01575,21.871661 27.441375,23.2547561 C27.345875,23.2477902 27.2495,23.242939 27.15225,23.242939 C25.03775,23.242939 23.323625,24.9487024 23.323625,27.0530122 C23.323625,27.0709244 23.324625,27.0887122 23.324875,27.1069976 C21.816375,27.3820244 20.67275,28.6962073 20.67275,30.2769585 C20.67275,32.0574805 22.12325,33.5010293 23.9125,33.5010293 C24.174875,33.5010293 24.717375,33.5010293 25.44575,33.5010293 C25.076375,32.977222 24.858875,32.3398463 24.858875,31.6513463 Z" id="Shape" fill="#000000" fill-rule="nonzero" opacity="0.1"></path>
                    <path d="M31.05325,24.8931 L30.5395,24.8931 C29.981375,24.8931 29.529,24.4428073 29.529,23.8875293 C29.529,23.3322512 29.9815,22.8820829 30.5395,22.8820829 L31.05325,22.8820829 C31.611375,22.8820829 32.063625,23.3321268 32.063625,23.8875293 C32.063625,24.4429317 31.61125,24.8931 31.05325,24.8931 Z" id="Shape" fill="#FFAB5F" fill-rule="nonzero"></path>
                    <path d="M29.50875,27.9705146 L28.995,27.9705146 C28.436875,27.9705146 27.9845,27.520222 27.9845,26.9649439 C27.9845,26.4094171 28.437,25.9594976 28.995,25.9594976 L29.50875,25.9594976 C30.066875,25.9594976 30.51925,26.4095415 30.51925,26.9649439 C30.51925,27.5203463 30.06675,27.9705146 29.50875,27.9705146 Z" id="Shape" fill="#C14616" fill-rule="nonzero"></path>
                    <g id="Group" transform="translate(24.000000, 28.112195)" fill-rule="nonzero" fill="#FFAB5F">
                        <path d="M9.9985,2.0565439 L9.484625,2.0565439 C8.9265,2.0565439 8.47425,1.60625122 8.47425,1.05097317 C8.47425,0.495570732 8.9265,0.0455268293 9.484625,0.0455268293 L9.9985,0.0455268293 C10.556625,0.0455268293 11.008875,0.495570732 11.008875,1.05097317 C11.008875,1.60625122 10.556625,2.0565439 9.9985,2.0565439 Z" id="Shape"></path>
                        <path d="M1.532625,2.0565439 L1.01875,2.0565439 C0.46075,2.0565439 0.008375,1.60625122 0.008375,1.05097317 C0.008375,0.495570732 0.460875,0.0455268293 1.01875,0.0455268293 L1.532625,0.0455268293 C2.09075,0.0455268293 2.543,0.495570732 2.543,1.05097317 C2.543,1.60625122 2.090875,2.0565439 1.532625,2.0565439 Z" id="Shape"></path>
                    </g>
                    <path d="M58.543125,39.7026293 C58.543125,44.1457244 54.92375,47.7475683 50.458875,47.7475683 L20.54725,47.7475683 C16.0825,47.7475683 12.463,44.1457244 12.463,39.7026293 L12.463,39.7026293 C12.463,35.2596585 16.0825,31.6578146 20.54725,31.6578146 L50.458875,31.6578146 C54.92375,31.657939 58.543125,35.2597829 58.543125,39.7026293 L58.543125,39.7026293 Z" id="Shape" fill="#FFE783" fill-rule="nonzero"></path>
                    <path d="M20.54725,45.0659634 C17.5755,45.0659634 15.15775,42.6600073 15.15775,39.7026293 C15.15775,36.7453756 17.5755,34.3394195 20.54725,34.3394195 L50.458875,34.3394195 C53.430625,34.3394195 55.8485,36.7453756 55.8485,39.7026293 C55.8485,42.6600073 53.430625,45.0659634 50.458875,45.0659634 L20.54725,45.0659634 Z" id="Shape" fill="#FFF4BD" fill-rule="nonzero"></path>
                    <path d="M20.54725,42.3842341 C19.061375,42.3842341 17.852625,41.1812561 17.852625,39.7026293 C17.852625,38.2240024 19.0615,37.0211488 20.54725,37.0211488 L50.458875,37.0211488 C51.944875,37.0211488 53.153625,38.2241268 53.153625,39.7026293 C53.153625,41.1813805 51.94475,42.3842341 50.458875,42.3842341 L20.54725,42.3842341 Z" id="Shape" fill="#F7E07C" fill-rule="nonzero"></path>
                    <path d="M47.49475,42.6285366 C47.49475,46.3310122 44.4785,49.3325488 40.757875,49.3325488 L30.787375,49.3325488 C27.06675,49.3325488 24.0505,46.3310122 24.0505,42.6285366 L24.0505,42.6285366 C24.0505,38.926061 27.06675,35.9245244 30.787375,35.9245244 L40.757875,35.9245244 C44.4785,35.9245244 47.49475,38.926061 47.49475,42.6285366 L47.49475,42.6285366 Z" id="Shape" fill="#FFE783" fill-rule="nonzero"></path>
                    <path d="M30.787375,46.6508195 C28.558625,46.6508195 26.745375,44.8464146 26.745375,42.6285366 C26.745375,40.4105341 28.558625,38.6062537 30.787375,38.6062537 L40.757875,38.6062537 C42.986625,38.6062537 44.799875,40.4106585 44.799875,42.6285366 C44.799875,44.8464146 42.986625,46.6508195 40.757875,46.6508195 L30.787375,46.6508195 Z" id="Shape" fill="#FFF4BD" fill-rule="nonzero"></path>
                    <path d="M30.787375,43.969339 C30.0445,43.969339 29.440125,43.3677878 29.440125,42.628661 C29.440125,41.8895341 30.044625,41.2879829 30.787375,41.2879829 L40.757875,41.2879829 C41.50075,41.2879829 42.105125,41.8895341 42.105125,42.628661 C42.105125,43.3677878 41.500625,43.969339 40.757875,43.969339 L30.787375,43.969339 Z" id="Shape" fill="#FFE783" fill-rule="nonzero"></path>
                    <path d="M28.901,38.3619512 C28.901,42.0644268 25.88475,45.0659634 22.164125,45.0659634 L12.193625,45.0659634 C8.473,45.0659634 5.456875,42.0644268 5.456875,38.3619512 L5.456875,38.3619512 C5.456875,34.6594756 8.473,31.657939 12.193625,31.657939 L22.164125,31.657939 C25.884875,31.657939 28.901,34.6594756 28.901,38.3619512 L28.901,38.3619512 Z" id="Shape" fill="#F7E07C" fill-rule="nonzero"></path>
                    <path d="M12.193625,42.3842341 C9.965,42.3842341 8.151625,40.5798293 8.151625,38.3619512 C8.151625,36.1440732 9.965,34.3396683 12.193625,34.3396683 L22.164125,34.3396683 C24.392875,34.3396683 26.20625,36.1440732 26.20625,38.3619512 C26.20625,40.5798293 24.392875,42.3842341 22.164125,42.3842341 L12.193625,42.3842341 Z" id="Shape" fill="#FFF4BD" fill-rule="nonzero"></path>
                    <path d="M12.193625,39.7026293 C11.45075,39.7026293 10.846375,39.101078 10.846375,38.3619512 C10.846375,37.6228244 11.450875,37.0212732 12.193625,37.0212732 L22.164125,37.0212732 C22.907,37.0212732 23.5115,37.6228244 23.5115,38.3619512 C23.5115,39.101078 22.907,39.7026293 22.164125,39.7026293 L12.193625,39.7026293 Z" id="Shape" fill="#FFE783" fill-rule="nonzero"></path>
                    <path d="M12.193625,20.8645976 L8.707625,20.8645976 C5.689875,20.8645976 3.2345,18.4213244 3.2345,15.4182951 C3.2345,12.4151415 5.689875,9.97186829 8.707625,9.97186829 L12.03,9.97186829 C12.588125,9.97186829 13.0405,10.4219122 13.0405,10.9773146 C13.0405,11.5327171 12.588,11.9828854 12.03,11.9828854 L8.707625,11.9828854 C6.804125,11.9828854 5.255375,13.5239561 5.255375,15.4182951 C5.255375,17.3123854 6.803875,18.8535805 8.707625,18.8535805 L12.1935,18.8535805 C12.751625,18.8535805 13.204,19.3038732 13.204,19.8590268 C13.20425,20.4143049 12.75175,20.8645976 12.193625,20.8645976 Z" id="Shape" fill="#F2D8A0" fill-rule="nonzero"></path>
                    <path d="M20.67975,11.9828854 L16.781875,11.9828854 C16.22375,11.9828854 15.771375,11.5325927 15.771375,10.9773146 C15.771375,10.4220366 16.223875,9.97186829 16.781875,9.97186829 L20.67975,9.97186829 C22.87275,9.97186829 24.656875,8.19644634 24.656875,6.01401951 C24.656875,3.83171707 22.87275,2.05629512 20.67975,2.05629512 L16.27875,2.05629512 C15.720625,2.05629512 15.26825,1.60600244 15.26825,1.05072439 C15.26825,0.495446341 15.72075,0.0452780488 16.27875,0.0452780488 L20.67975,0.0452780488 C23.987125,0.0452780488 26.678,2.72302683 26.678,6.01426829 C26.678,9.30513659 23.987125,11.9828854 20.67975,11.9828854 Z" id="Shape" fill="#FCE9C3" fill-rule="nonzero"></path>
                    <path d="M53.499125,16.7080976 L45.47525,16.7080976 C43.80275,16.7080976 42.442,15.3539854 42.442,13.6897683 C42.442,12.0254268 43.80275,10.6715634 45.47525,10.6715634 L48.265,10.6715634 C48.823125,10.6715634 49.275375,10.2212707 49.275375,9.66599268 C49.275375,9.11059024 48.823125,8.66054634 48.265,8.66054634 L45.47525,8.66054634 C42.688375,8.66054634 40.421125,10.9166122 40.421125,13.6897683 C40.421125,16.4629244 42.688375,18.7191146 45.47525,18.7191146 L53.49925,18.7191146 C54.810125,18.7191146 55.8765,19.7805366 55.8765,21.0848927 L55.8765,23.2740366 C55.8765,23.829439 56.329,24.2796073 56.887,24.2796073 C57.445125,24.2796073 57.897375,23.8293146 57.897375,23.2740366 L57.897375,21.0848927 C57.8975,18.6715976 55.9245,16.7080976 53.499125,16.7080976 Z" id="Shape" fill="#F2D8A0" fill-rule="nonzero"></path>
                    <path d="M8.928875,45.717022 C9.993125,48.765578 12.902625,50.9549707 16.328625,50.9549707 L47.671125,50.9549707 C51.097375,50.9549707 54.00675,48.765578 55.071,45.717022 L8.928875,45.717022 Z" id="Shape" fill="#B3B3B3" fill-rule="nonzero"></path>
                    <path d="M14.385875,45.717022 L8.928875,45.717022 C9.993125,48.765578 12.902625,50.9549707 16.328625,50.9549707 L21.785375,50.9549707 C18.359375,50.9549707 15.45,48.765578 14.385875,45.717022 Z" id="Shape" fill="#000000" fill-rule="nonzero" opacity="0.1"></path>
                    <path d="M64,44.9764024 C64,46.1517659 63.042625,47.1044707 61.8615,47.1044707 L2.138375,47.1044707 C0.957375,47.1044707 0,46.1517659 0,44.9764024 L0,44.9764024 C0,43.8011634 0.957375,42.8484585 2.138375,42.8484585 L61.8615,42.8484585 C63.042625,42.8484585 64,43.8011634 64,44.9764024 L64,44.9764024 Z" id="Shape" fill="#CCCCCC" fill-rule="nonzero"></path>
                    <path d="M5.456875,44.9764024 C5.456875,43.8011634 6.414125,42.8484585 7.59525,42.8484585 L2.138375,42.8484585 C0.957375,42.8484585 0,43.8011634 0,44.9764024 C0,46.1517659 0.957375,47.1044707 2.138375,47.1044707 L7.59525,47.1044707 C6.414125,47.1044707 5.456875,46.1517659 5.456875,44.9764024 Z" id="Shape" fill="#000000" fill-rule="nonzero" opacity="0.1"></path>
                </g>
            </g>
        </g>
    </g>
</svg>