<?xml version="1.0" encoding="UTF-8"?>
<svg width="55px" height="54px" viewBox="0 0 55 54" version="1.1" xmlns="http://www.w3.org/2000/svg" xmlns:xlink="http://www.w3.org/1999/xlink">
    <!-- Generator: Sketch 46.2 (44496) - http://www.bohemiancoding.com/sketch -->
    <title>evening</title>
    <desc>Created with Sketch.</desc>
    <defs></defs>
    <g id="Symbols" stroke="none" stroke-width="1" fill="none" fill-rule="evenodd">
        <g id="card/active/menu" transform="translate(-38.000000, -82.000000)" fill-rule="nonzero">
            <g id="evening" transform="translate(38.472742, 82.000000)">
                <rect id="Rectangle-path" fill="#F05540" x="40.3313292" y="7.75171069" width="6.17893493" height="10.7849888"></rect>
                <rect id="Rectangle-path" fill="#F3705A" x="37.9721129" y="2.24683756" width="10.8973675" height="5.84190403"></rect>
                <path d="M4.7184326,29.0970361 L4.7184326,53.9249439 L48.7571017,53.9249439 L48.7571017,29.0970361 C40.1066771,20.4466115 35.2758657,15.6158001 26.7377145,7.07764889 L26.7377145,7.07764889 C18.1996686,15.7280735 13.3688572,20.5588849 4.7184326,29.0970361 Z" id="Shape" fill="#FFD15C"></path>
                <path d="M48.8694805,29.0970361 C40.2190558,20.4466115 35.3882445,15.6158001 26.8500932,7.07764889 C22.4686915,11.3466718 19.0983825,14.7169808 15.7280735,18.0872898 C12.3577645,21.4575988 8.98745555,24.8279078 4.7184326,29.0969308 L4.7184326,34.1523943 C13.3688572,25.5019696 18.1996686,20.6711583 26.7378198,12.1330071 C35.3882445,20.7834317 40.2190558,25.6142431 48.757207,34.1523943 L48.757207,34.8264561 L48.757207,34.8264561 L48.757207,29.0969308 L48.8694805,29.0969308 L48.8694805,29.0970361 Z" id="Shape" fill="#F7B64C"></path>
                <path d="M22.8057224,53.9249439 L9.54924393,53.9249439 L9.54924393,40.8931176 C9.54924393,37.1857777 12.582522,34.2648783 16.1774832,34.2648783 L16.1774832,34.2648783 C19.8848231,34.2648783 22.8057224,37.2981564 22.8057224,40.8931176 L22.8057224,53.9249439 Z" id="Shape" fill="#415A6B"></path>
                <rect id="Rectangle-path" fill="#344A5E" x="26.7378198" y="34.264773" width="17.3009546" height="15.1663905"></rect>
                <g id="Group" transform="translate(28.436982, 36.020177)" fill="#8AD7F8">
                    <rect id="Rectangle-path" x="0.0982655717" y="0.0421288625" width="5.95417745" height="11.5714293"></rect>
                    <rect id="Rectangle-path" x="7.84997626" y="0.0421288625" width="5.95417745" height="11.5714293"></rect>
                </g>
                <path d="M52.9138512,24.4908769 L29.434067,1.0110927 C28.0859434,-0.3370309 25.7267271,-0.3370309 24.3786035,1.0110927 L1.0110927,24.4908769 C-0.3370309,25.8390005 -0.3370309,28.1982168 1.0110927,29.5463404 C2.3592163,30.894464 4.7184326,30.894464 6.06655619,29.5463404 L26.962472,8.65042465 L47.8583878,29.5463404 C49.2065114,30.894464 51.5657276,30.894464 52.9138512,29.5463404 C54.2619748,28.0859434 54.2619748,25.8390005 52.9138512,24.4908769 Z" id="Shape" fill="#F3705A"></path>
            </g>
        </g>
    </g>
</svg>