<?xml version="1.0" encoding="UTF-8"?>
<svg width="57px" height="46px" viewBox="0 0 57 46" version="1.1" xmlns="http://www.w3.org/2000/svg" xmlns:xlink="http://www.w3.org/1999/xlink">
    <!-- Generator: Sketch 46.2 (44496) - http://www.bohemiancoding.com/sketch -->
    <title>icon/study</title>
    <desc>Created with Sketch.</desc>
    <defs></defs>
    <g id="Page-1" stroke="none" stroke-width="1" fill="none" fill-rule="evenodd">
        <g id="work" transform="translate(-1082.000000, -501.000000)" fill="#FFFFFF">
            <g id="Group" transform="translate(360.000000, 384.291175)">
                <g id="icons/study" transform="translate(721.000000, 114.849061)">
                    <g id="college-graduation" transform="translate(1.900000, 1.785108)">
                        <path d="M31.7757695,33.4720721 C30.7733361,34.0779714 29.489555,34.4117377 28.1608826,34.4117377 C26.8322101,34.4117377 25.548429,34.0781105 24.5459956,33.4720721 L8.1801163,23.5798454 C8.1801163,23.5798454 6.70293518,22.6874831 6.70293518,24.7090022 C6.70293518,27.0046021 6.70293518,33.8914017 6.70293518,33.8914017 C6.70293518,33.9832257 6.70293518,34.4441543 6.70293518,34.587038 C6.70293518,39.790676 16.3098357,45.4004264 28.160459,45.4004264 C40.0110824,45.4004264 49.6179829,39.7908151 49.6179829,34.587038 C49.6179829,34.4441543 49.6179829,33.9832257 49.6179829,33.8914017 C49.6179829,33.8914017 49.6179829,26.5869421 49.6179829,24.1520758 C49.6179829,22.5294345 48.5678348,23.3223208 48.5678348,23.3223208 L31.7757695,33.4720721 Z" id="Shape" fill-rule="nonzero"></path>
                        <path d="M55.3786222,15.7112246 C56.6361461,14.9511724 56.6361461,13.7073746 55.3786222,12.9471833 L30.4472382,0.660158872 C29.1897144,-0.0998933761 27.1319096,-0.0998933761 25.8743857,0.660158872 L0.943142875,12.9471833 C-0.314380958,13.7072355 -0.314380958,14.9510333 0.943142875,15.7112246 L25.8743857,30.7807943 C27.1319096,31.5408466 29.1897144,31.5408466 30.4472382,30.7807943" id="Shape" fill-rule="nonzero"></path>
                        <path d="M54.3475317,38.0478287 C54.3475317,33.8870888 54.3475317,21.4047297 54.3475317,21.4047297 C54.3475317,21.4047297 54.3592487,20.6164346 53.8846421,20.8767417 C53.5039123,21.0855717 52.5706511,21.5982557 52.241871,21.8801276 C51.8622705,22.205268 51.9478183,22.9351296 51.9478183,22.9351296 C51.9478183,22.9351296 51.9478183,34.2696887 51.9478183,38.0478287 C51.9478183,38.262363 51.7607708,38.3647607 51.6715526,38.416516 C50.8097225,38.9158438 50.2302282,39.8375619 50.2302282,40.8942335 C50.2302282,42.4822321 51.5363138,43.7695766 53.1477456,43.7695766 C54.7590362,43.7695766 56.0651218,42.4822321 56.0651218,40.8942335 C56.0651218,39.8335272 55.4813925,38.9088874 54.6140568,38.4108118 C54.5278032,38.3612825 54.3475317,38.2622239 54.3475317,38.0478287 Z" id="Shape" fill-rule="nonzero"></path>
                    </g>
                </g>
            </g>
        </g>
    </g>
</svg>