<?xml version="1.0" encoding="UTF-8"?>
<svg width="61px" height="57px" viewBox="0 0 61 57" version="1.1" xmlns="http://www.w3.org/2000/svg" xmlns:xlink="http://www.w3.org/1999/xlink">
    <!-- Generator: Sketch 46.2 (44496) - http://www.bohemiancoding.com/sketch -->
    <title>icons/vacance</title>
    <desc>Created with Sketch.</desc>
    <defs></defs>
    <g id="Page-1" stroke="none" stroke-width="1" fill="none" fill-rule="evenodd">
        <g id="work" transform="translate(-1340.000000, -579.000000)" fill="#FFFFFF">
            <g id="icons/vacance" transform="translate(1340.000000, 579.000000)">
                <g id="sunbed" transform="translate(0.385537, 0.718645)">
                    <path d="M4.037,49 L32.037,49 C33.387,49 34.658,48.626 35.712,47.918 L52.833,30.824 C53.585,30.071 54,29.067 54,27.996 C54,26.926 53.585,25.921 52.832,25.168 C52.079,24.415 51.074,24 50.004,24 C48.933,24 47.929,24.415 47.176,25.168 L33.959,38.385 L46.626,13.454 C46.637,13.433 46.635,13.41 46.644,13.389 C47.263,12.699 48.388,12.507 49.258,13.011 C49.753,13.297 50.112,13.749 50.266,14.284 C50.415,14.805 50.353,15.343 50.089,15.8 C49.998,15.957 49.955,16.129 49.955,16.298 C49.955,16.644 50.134,16.981 50.455,17.166 C50.932,17.441 51.544,17.278 51.821,16.8 C52.355,15.876 53.667,15.554 54.653,16.126 C55.68,16.719 56.069,17.977 55.52,18.932 C55.519,18.933 55.519,18.934 55.518,18.935 C55.242,19.414 55.406,20.025 55.884,20.301 C56.041,20.392 56.213,20.435 56.383,20.435 C56.729,20.435 57.065,20.256 57.25,19.935 C60.895,13.622 58.614,5.712 52.059,1.926 C49.877,0.666 47.439,0 45.009,0 C40.359,0 36.194,2.405 33.868,6.435 C33.592,6.914 33.756,7.525 34.234,7.801 C34.713,8.077 35.323,7.912 35.6,7.435 C35.6,7.434 35.601,7.432 35.602,7.431 C36.131,6.518 37.474,6.206 38.465,6.78 C38.961,7.066 39.319,7.518 39.473,8.053 C39.623,8.574 39.561,9.114 39.298,9.57 C39.207,9.727 39.164,9.899 39.164,10.069 C39.164,10.415 39.343,10.751 39.664,10.936 C40.141,11.211 40.753,11.048 41.03,10.57 C41.564,9.646 42.874,9.325 43.863,9.896 C44.358,10.182 44.716,10.634 44.87,11.169 C45.02,11.69 44.958,12.229 44.695,12.685 C44.623,12.809 44.589,12.943 44.575,13.078 L30.386,41 L4.037,41 C1.831,41 0.037,42.794 0.037,45 C0.037,47.206 1.831,49 4.037,49 Z" id="Shape" fill-rule="nonzero"></path>
                    <path d="M58.362,52.948 L55.414,50 L46.914,41.5 L59.707,28.707 C60.098,28.316 60.098,27.684 59.707,27.293 C59.316,26.902 58.684,26.902 58.293,27.293 L35.586,50 L1,50 L0,50 L0,55 L57.513,55 C57.535,55 57.555,54.992 57.577,54.99 L58.294,55.707 C58.488,55.902 58.744,56 59,56 C59.256,56 59.512,55.902 59.707,55.707 C60.098,55.316 60.098,54.684 59.707,54.293 L58.362,52.948 Z M38.414,50 L45.5,42.914 L52.586,50 L38.414,50 Z" id="Shape" fill-rule="nonzero"></path>
                    <path d="M7,12 L9.069,12 C9.252,13.458 9.828,14.792 10.688,15.898 L9.221,17.364 C8.83,17.755 8.83,18.387 9.221,18.778 C9.416,18.973 9.672,19.071 9.928,19.071 C10.184,19.071 10.44,18.973 10.635,18.778 L12.102,17.312 C13.208,18.172 14.542,18.748 15.999,18.931 L15.999,21 C15.999,21.553 16.447,22 16.999,22 C17.551,22 17.999,21.553 17.999,21 L17.999,18.931 C19.456,18.748 20.79,18.172 21.896,17.312 L23.363,18.778 C23.558,18.973 23.814,19.071 24.07,19.071 C24.326,19.071 24.582,18.973 24.777,18.778 C25.168,18.387 25.168,17.755 24.777,17.364 L23.31,15.898 C24.17,14.792 24.746,13.458 24.929,12 L27,12 C27.552,12 28,11.553 28,11 C28,10.447 27.552,10 27,10 L24.931,10 C24.748,8.542 24.172,7.208 23.312,6.102 L24.779,4.636 C25.17,4.245 25.17,3.613 24.779,3.222 C24.388,2.831 23.756,2.831 23.365,3.222 L21.898,4.688 C20.792,3.828 19.458,3.252 18.001,3.069 L18.001,1 C18.001,0.447 17.553,0 17.001,0 C16.449,0 16.001,0.447 16.001,1 L16.001,3.069 C14.544,3.252 13.21,3.828 12.104,4.688 L10.637,3.222 C10.246,2.831 9.614,2.831 9.223,3.222 C8.832,3.613 8.832,4.245 9.223,4.636 L10.69,6.102 C9.828,7.208 9.252,8.542 9.069,10 L7,10 C6.448,10 6,10.447 6,11 C6,11.553 6.448,12 7,12 Z" id="Shape" fill-rule="nonzero"></path>
                </g>
            </g>
        </g>
    </g>
</svg>