<?xml version="1.0" encoding="UTF-8"?>
<svg width="14px" height="15px" viewBox="0 0 14 15" version="1.1" xmlns="http://www.w3.org/2000/svg" xmlns:xlink="http://www.w3.org/1999/xlink">
    <!-- Generator: Sketch 46.2 (44496) - http://www.bohemiancoding.com/sketch -->
    <title>icons/clock</title>
    <desc>Created with Sketch.</desc>
    <defs></defs>
    <g id="Symbols" stroke="none" stroke-width="1" fill="none" fill-rule="evenodd">
        <g id="card/active/menu" transform="translate(-117.000000, -126.000000)" fill="#000000">
            <g id="icons/clock" transform="translate(117.000000, 126.000000)">
                <g id="clock-circular-outline" transform="translate(0.019588, 0.240210)">
                    <path d="M6.93429332,0 C3.1107257,0 0,3.1107257 0,6.93429332 C0,10.7578609 3.1107257,13.8685866 6.93429332,13.8685866 C10.7578609,13.8685866 13.8685866,10.7578609 13.8685866,6.93429332 C13.8685866,3.1107257 10.7578609,0 6.93429332,0 Z M6.93429332,12.3930866 C3.92434183,12.3930866 1.47535726,9.94438755 1.47535726,6.93429332 C1.47535726,3.92419909 3.92434183,1.4755 6.93429332,1.4755 C9.94424481,1.4755 12.3932294,3.92419909 12.3932294,6.93429332 C12.3932294,9.94438755 9.94424481,12.3930866 6.93429332,12.3930866 Z" id="Shape" fill-rule="nonzero"></path>
                    <path d="M10.5481764,6.72018381 L7.43188382,6.72018381 L7.43188382,2.97326739 C7.43188382,2.65795545 7.17623707,2.4023087 6.86092513,2.4023087 C6.54561319,2.4023087 6.28996644,2.65795545 6.28996644,2.97326739 L6.28996644,7.2911425 C6.28996644,7.60645444 6.54561319,7.8621012 6.86092513,7.8621012 L10.5481764,7.8621012 C10.8634883,7.8621012 11.1191351,7.60645444 11.1191351,7.2911425 C11.1191351,6.97583057 10.8634883,6.72018381 10.5481764,6.72018381 Z" id="Shape" fill-rule="nonzero"></path>
                </g>
            </g>
        </g>
    </g>
</svg>