<?xml version="1.0" encoding="UTF-8"?>
<svg width="88px" height="207px" viewBox="0 0 88 207" version="1.1" xmlns="http://www.w3.org/2000/svg" xmlns:xlink="http://www.w3.org/1999/xlink">
    <!-- Generator: Sketch 46.2 (44496) - http://www.bohemiancoding.com/sketch -->
    <title>Page 1</title>
    <desc>Created with Sketch.</desc>
    <defs>
        <polygon id="path-1" points="0 122.165223 0 0.676 86.7893298 0.676 86.7893298 122.165223"></polygon>
    </defs>
    <g id="Symbols" stroke="none" stroke-width="1" fill="none" fill-rule="evenodd">
        <g id="card/active/sport" transform="translate(-24.000000, -214.000000)">
            <g id="Page-1" transform="translate(24.500000, 213.000000)">
                <g id="Group-3" transform="translate(21.000000, 90.324000)" fill="#000000">
                    <path d="M0.9155,22.5197 C1.7795,29.6127 3.4455,44.7567 5.1415,50.7357 C6.0275,53.8307 5.5035,61.6357 6.2135,63.5847 C6.5335,64.4317 6.3655,65.2117 5.6775,67.1297 C3.2905,73.8397 3.5945,78.5657 9.5985,96.3697 C9.5985,96.3697 11.4465,100.3147 10.5125,107.4027 C10.5125,107.4027 6.6765,115.2947 9.1335,115.4527 C9.1335,115.4527 9.3255,115.9757 10.1565,115.5617 C10.1565,115.5617 11.4835,116.9317 12.9175,116.1887 C12.9175,116.1887 14.2455,117.2487 15.3805,116.3047 C15.3805,116.3047 16.2905,117.3517 17.6175,116.5057 C17.6175,116.5057 19.3595,117.6807 20.3945,116.4077 C20.3945,116.4077 22.2335,116.8157 18.9595,108.5217 C18.9595,108.5217 17.7055,99.7287 17.0145,97.9997 C15.6965,94.7247 16.6275,85.7487 16.9085,83.8247 C17.3615,80.6087 17.1185,75.1297 16.2905,70.8907 C15.6845,67.8527 17.3255,62.1167 17.9315,58.5907 C19.1765,51.1677 21.6165,32.2177 21.3115,28.6317 L22.3195,28.9857 C23.0415,28.9877 23.4975,28.6347 23.4975,28.6347 C23.1935,32.2147 25.6235,51.1637 26.8775,58.5937 C27.4745,62.1127 29.1115,67.8487 28.5225,70.8937 C27.6815,75.1377 27.4385,80.6297 27.9015,83.8277 C28.1935,85.7697 29.1125,94.7267 27.7975,98.0027 C27.1095,99.7207 25.8485,108.5247 25.8485,108.5247 C22.5635,116.8187 24.4175,116.4107 24.4175,116.4107 C25.4345,117.6587 27.1765,116.5087 27.1765,116.5087 C28.5035,117.3547 29.4225,116.3077 29.4225,116.3077 C30.5615,117.2507 31.8895,116.1917 31.8895,116.1917 C33.3205,116.9347 34.6475,115.5647 34.6475,115.5647 C35.4695,115.9787 35.6705,115.4557 35.6705,115.4557 C38.1365,115.2977 34.2945,107.4057 34.2945,107.4057 C33.3745,100.3177 35.2075,96.3727 35.2075,96.3727 C41.2115,78.5677 41.5165,73.8427 39.1165,67.1327 C38.4405,65.1947 38.2695,64.4287 38.5805,63.5877 C39.2995,61.6467 38.7755,53.8397 39.6525,50.7397 C41.3445,44.7607 43.0135,29.5977 43.8835,22.5227 C45.0525,12.9927 39.7425,0.2147 39.7425,0.2147 C39.7425,0.2147 22.2985,4.0197 5.0615,0.2147 C5.0465,0.2467 -0.2555,13.0027 0.9155,22.5197 Z" id="Fill-1"></path>
                </g>
                <g id="Group-6" transform="translate(0.000000, 0.324000)">
                    <mask id="mask-2" fill="white">
                        <use xlink:href="#path-1"></use>
                    </mask>
                    <g id="Clip-5"></g>
                    <path d="M78.6392,98.1166 C77.8962,96.0586 77.3352,89.4426 77.3352,89.4426 C77.1102,81.6356 75.1802,78.2446 75.1802,78.2446 C73.0962,74.9096 72.0822,69.7546 71.6162,66.4056 C68.9012,66.4196 63.5012,66.3386 61.2292,65.5236 L59.4032,43.9636 C59.4032,43.9636 67.2212,44.4056 70.9902,45.4946 C69.4662,35.1246 61.5952,35.0456 61.5952,35.0456 C53.1442,33.7876 51.9682,31.0576 51.9682,31.0576 C50.1782,28.4816 51.2012,23.5436 51.2012,23.5436 C52.6862,22.3356 53.2592,19.1286 53.2592,19.1286 C55.7252,17.2376 55.6042,14.4706 54.4652,14.5006 C53.5512,14.5246 53.7582,13.7676 53.7582,13.7676 C55.3002,1.3116 44.2422,0.6756 44.2422,0.6756 L42.5542,0.6756 C42.5542,0.6756 31.4912,1.3116 33.0312,13.7646 C33.0312,13.7646 33.2382,14.5226 32.3162,14.4976 C31.1802,14.4676 31.0742,17.2346 33.5312,19.1256 C33.5312,19.1256 34.1032,22.3316 35.5892,23.5406 C35.5892,23.5406 36.6122,28.4786 34.8222,31.0546 C34.8222,31.0546 33.6502,33.7846 25.1952,35.0426 C25.1952,35.0426 17.3172,35.1206 15.8032,45.4806 C19.5922,44.4026 27.3432,43.9636 27.3432,43.9636 L25.5162,65.5236 C23.2562,66.3346 17.8962,66.4186 15.1692,66.4056 C14.7052,69.7556 13.6922,74.9076 11.6012,78.2416 C11.6012,78.2416 9.6802,81.6336 9.4582,89.4396 C9.4582,89.4396 8.8952,96.0556 8.1552,98.1136 C7.7042,99.3226 6.1342,101.3686 4.9062,102.9026 C2.4982,105.8956 -1.5488,112.1426 0.6162,112.8556 C0.6162,112.8556 2.3052,113.0196 4.5252,108.5986 C4.5252,108.5986 4.4792,110.2916 2.6982,115.2236 C2.3482,116.1376 0.8592,120.8136 3.2712,119.1326 C3.2712,119.1326 4.3882,118.3656 5.8402,113.5556 C5.8402,113.5556 5.0612,121.6546 5.9282,122.0616 C7.0612,122.6166 7.6792,121.0146 8.1902,113.9266 C8.1902,113.9266 8.7142,111.6376 8.9572,120.3746 C8.9692,120.8256 9.6302,123.0726 10.5532,121.1546 C11.3322,119.5466 10.9822,115.2906 10.9822,113.8596 C10.9822,113.8596 11.9812,119.3816 12.9152,119.3816 C12.9152,119.3816 14.0142,120.6726 13.5632,113.8106 C13.4902,112.6896 13.8832,110.3886 13.9322,109.7186 L14.0382,107.0876 C14.0382,107.0876 13.7642,104.0736 13.7642,102.8186 C13.7642,102.5076 14.8422,98.4036 17.6852,94.0716 C17.6852,94.0716 23.5982,83.5836 23.2172,76.7296 C23.2172,76.7296 23.1352,70.1896 25.5162,66.4846 C25.5162,66.4846 26.0962,72.8456 26.3462,79.1586 C28.8802,78.8866 48.1272,76.9356 60.4492,79.1406 C60.7012,72.8336 61.2842,66.4876 61.2842,66.4876 C63.6652,70.1926 63.5742,76.7326 63.5742,76.7326 C63.1962,83.5916 69.1152,94.0746 69.1152,94.0746 C71.9592,98.4066 73.0362,102.5166 73.0362,102.8216 C73.0362,104.0696 72.7632,107.0906 72.7632,107.0906 L72.8722,109.7216 C72.9212,110.3916 73.2982,112.6986 73.2372,113.8136 C72.7932,120.6756 73.8832,119.3846 73.8832,119.3846 C74.8032,119.3846 75.8142,113.8636 75.8142,113.8636 C75.8142,115.2866 75.4662,119.5496 76.2342,121.1576 C77.1532,123.0756 77.8292,120.8286 77.8412,120.3776 C78.0842,111.6406 78.6092,113.9296 78.6092,113.9296 C79.1202,121.0176 79.7482,122.6186 80.8742,122.0646 C81.7272,121.6576 80.9472,113.5586 80.9472,113.5586 C82.4082,118.3696 83.5162,119.1356 83.5162,119.1356 C85.9272,120.8286 84.4362,116.1526 84.1012,115.2266 C82.3172,110.3066 82.2622,108.6016 82.2622,108.6016 C84.4912,113.0226 86.1712,112.8586 86.1712,112.8586 C88.3452,112.1646 84.2712,105.9046 81.8842,102.9056 C80.6662,101.3776 79.0952,99.3316 78.6392,98.1166 Z" id="Fill-4" fill="#000000" mask="url(#mask-2)"></path>
                </g>
                <path d="M58.7441,37.0431 C58.6401,36.8801 58.5381,36.7151 58.4321,36.5541 C57.5531,35.2211 56.2861,34.7321 54.9301,35.3211 C51.3661,36.8671 47.9601,38.6671 45.1871,41.4851 C43.8781,42.8151 42.9391,42.8371 41.5671,41.5471 C39.5161,39.6191 37.2991,37.9471 34.7511,36.7391 C33.3961,36.0971 32.0151,35.5091 30.4001,34.7881 C29.6421,35.4351 28.8121,35.9061 28.3181,36.6121 C28.2221,36.7501 28.1341,36.8921 28.0401,37.0301 L25.7601,63.9311 C26.2991,64.1461 26.8401,64.3521 27.3841,64.5471 C30.5521,65.6881 33.8291,66.1131 37.0791,64.8591 C39.5381,63.9101 41.6231,62.4381 42.8661,59.9951 C42.9751,59.7801 43.1971,59.5821 43.4151,59.4871 C43.4881,59.4561 43.7621,59.7451 43.8591,59.9321 C46.0091,64.0551 50.3751,65.8251 54.0201,65.6031 C56.3841,65.4581 58.7471,64.7481 61.0441,63.9941 L58.7441,37.0431 Z" id="pectoraux" fill="#000000"></path>
                <path d="M27.3436,44.2873 C27.3436,44.2873 19.5916,44.7263 15.8036,45.8053 C15.7566,46.1253 15.7156,46.4543 15.6816,46.7953 L15.5236,63.4303 C15.5236,63.4303 15.4396,64.7733 15.1686,66.7303 C17.8966,66.7433 23.2556,66.6583 25.5166,65.8473 L27.3436,44.2873 Z" id="bicepsG" fill="#000000"></path>
                <path d="M61.2295,65.8473 C63.5005,66.6623 68.9005,66.7433 71.6165,66.7303 C71.3445,64.7753 71.2595,63.4333 71.2595,63.4333 L71.1135,46.7983 C71.0795,46.4613 71.0375,46.1363 70.9905,45.8183 C67.2215,44.7303 59.4025,44.2873 59.4025,44.2873 L61.2295,65.8473 Z" id="bicepsD" fill="#000000"></path>
                <path d="M26.0612,90.5361 C43.2982,94.3441 60.7422,90.5391 60.7422,90.5391 C60.2602,88.3821 60.2712,83.9331 60.4502,79.4641 C48.1272,77.2591 28.8802,79.2111 26.3462,79.4831 C26.5232,83.9441 26.5352,88.3821 26.0612,90.5361 Z" id="abdominaux" fill="#000000"></path>
            </g>
        </g>
    </g>
</svg>