<?xml version="1.0" encoding="UTF-8"?>
<svg width="43px" height="61px" viewBox="0 0 43 61" version="1.1" xmlns="http://www.w3.org/2000/svg" xmlns:xlink="http://www.w3.org/1999/xlink">
    <!-- Generator: Sketch 46.2 (44496) - http://www.bohemiancoding.com/sketch -->
    <title>menu/pasta</title>
    <desc>Created with Sketch.</desc>
    <defs></defs>
    <g id="Symbols" stroke="none" stroke-width="1" fill="none" fill-rule="evenodd">
        <g id="card/active/sport" transform="translate(-40.000000, -85.000000)">
            <g id="icons/sport" transform="translate(39.472742, 84.785755)">
                <g id="strong" transform="translate(0.571429, 0.957222)">
                    <path d="M41.8871768,40.6110316 L41.7931118,40.4684698 L41.9375479,40.5741319 L41.9651934,38.324185 C42.0623041,30.37071 39.7530834,22.6339478 37.7989201,17.5443611 C35.4973136,11.5490323 33.031474,7.4061874 32.78899,7.00439026 C32.7375647,6.718798 32.322179,4.81078869 30.3155361,3.98341457 C28.0747263,2.49934225 23.3117316,0 19.5948151,0 C18.0104692,0 16.7370183,0.446896826 15.8093706,1.327922 C12.67219,4.30590656 12.1562965,6.31875798 12.2760157,7.48279829 C12.3833178,8.53075085 12.9911677,9.11880381 13.2964399,9.3517993 L13.2470059,9.55070646 C13.1033898,10.1378223 13.2506373,11.3463766 15.8456846,12.8453259 C17.0133563,13.520064 18.1458854,13.8480617 19.3086372,13.8480617 C20.8864231,13.8480617 22.2054423,13.2179547 23.2761204,12.7066298 C23.4483192,12.6242789 23.6158323,12.5445052 23.7785426,12.4700029 C24.1707341,12.2900727 24.5416057,12.2739071 24.8706577,12.4274803 C25.5210302,12.730761 25.932433,13.6356832 26.071832,14.1089369 C25.9217731,14.9509538 23.8022053,27.1488358 25.4954932,33.7837601 L25.5005303,33.8041428 C23.8018538,33.0311226 22.0132122,32.6392825 20.1787681,32.6392825 C19.0217563,32.6392825 17.8286648,32.7961357 16.6331133,33.1053906 C13.8254532,33.8317883 11.8427073,35.1964929 11.3911248,35.5262477 C10.3305209,35.0187885 9.10099823,34.7614274 7.7345365,34.7614274 C6.96022771,34.7614274 6.1401164,34.8444811 5.29704524,35.0082457 L4.20071303,35.2209756 L4.37232609,36.3250392 C5.05069556,40.678154 7.29665961,51.5237484 13.4853899,58.2006095 L14.0029234,58.7586741 L14.7204183,58.5063502 C16.3300669,57.9400857 17.7856737,57.1896739 19.046239,56.2756146 L20.9541312,54.8926359 C21.1738896,54.9029444 21.4914617,54.9132529 21.8858789,54.9132529 C24.9411772,54.9132529 32.329559,54.2986087 35.3185549,48.6336203 C35.6370641,48.6995713 36.3706074,48.8276075 37.2641668,48.8276075 C39.9020881,48.8276075 41.747895,47.7105412 42.4616413,45.682227 C43.24743,43.4490314 42.5830004,41.6919011 41.8871768,40.6110316 Z" id="SVGCleanerId_0" fill="#FCCC9A" fill-rule="nonzero"></path>
                    <path d="M41.8871768,40.6110316 L41.7931118,40.4684698 L41.9375479,40.5741319 L41.9651934,38.324185 C42.0623041,30.37071 39.7530834,22.6339478 37.7989201,17.5443611 C35.4973136,11.5490323 33.031474,7.4061874 32.78899,7.00439026 C32.7375647,6.718798 32.322179,4.81078869 30.3155361,3.98341457 C28.0747263,2.49934225 23.3117316,0 19.5948151,0 C18.0104692,0 16.7370183,0.446896826 15.8093706,1.327922 C12.67219,4.30590656 12.1562965,6.31875798 12.2760157,7.48279829 C12.3833178,8.53075085 12.9911677,9.11880381 13.2964399,9.3517993 L13.2470059,9.55070646 C13.1033898,10.1378223 13.2506373,11.3463766 15.8456846,12.8453259 C17.0133563,13.520064 18.1458854,13.8480617 19.3086372,13.8480617 C20.8864231,13.8480617 22.2054423,13.2179547 23.2761204,12.7066298 C23.4483192,12.6242789 23.6158323,12.5445052 23.7785426,12.4700029 C24.1707341,12.2900727 24.5416057,12.2739071 24.8706577,12.4274803 C25.5210302,12.730761 25.932433,13.6356832 26.071832,14.1089369 C25.9217731,14.9509538 23.8022053,27.1488358 25.4954932,33.7837601 L25.5005303,33.8041428 C23.8018538,33.0311226 22.0132122,32.6392825 20.1787681,32.6392825 C19.0217563,32.6392825 17.8286648,32.7961357 16.6331133,33.1053906 C13.8254532,33.8317883 11.8427073,35.1964929 11.3911248,35.5262477 C10.3305209,35.0187885 9.10099823,34.7614274 7.7345365,34.7614274 C6.96022771,34.7614274 6.1401164,34.8444811 5.29704524,35.0082457 L4.20071303,35.2209756 L4.37232609,36.3250392 C5.05069556,40.678154 7.29665961,51.5237484 13.4853899,58.2006095 L14.0029234,58.7586741 L14.7204183,58.5063502 C16.3300669,57.9400857 17.7856737,57.1896739 19.046239,56.2756146 L20.9541312,54.8926359 C21.1738896,54.9029444 21.4914617,54.9132529 21.8858789,54.9132529 C24.9411772,54.9132529 32.329559,54.2986087 35.3185549,48.6336203 C35.6370641,48.6995713 36.3706074,48.8276075 37.2641668,48.8276075 C39.9020881,48.8276075 41.747895,47.7105412 42.4616413,45.682227 C43.24743,43.4490314 42.5830004,41.6919011 41.8871768,40.6110316 Z" id="SVGCleanerId_0_1_" fill="#FCCC9A" fill-rule="nonzero"></path>
                    <g id="Group" opacity="0.19" transform="translate(12.182771, 0.234284)" fill-rule="nonzero" fill="#202121">
                        <path d="M0.0932450521,7.24851424 C0.200547147,8.2964668 0.808397116,8.88451976 1.11366923,9.11751525 L1.0642353,9.31642241 C0.920619176,9.90353824 1.0678667,11.1120925 3.66291399,12.6110419 C4.8305857,13.2857799 5.9631148,13.6137776 7.12586654,13.6137776 C8.70365248,13.6137776 10.0226717,12.9836707 11.0933498,12.4723457 C11.2655486,12.3899949 11.4330617,12.3102211 11.5957719,12.2357188 C11.6052604,12.2312674 11.6145147,12.2281046 11.6240032,12.2242389 C11.1098668,12.3414981 10.6193932,12.3988977 10.1372366,12.3988977 C8.91075958,12.3988977 7.68404829,12.034586 6.38599751,11.2842913 C4.65932405,10.2868269 4.08403957,9.56804348 3.90727225,9.27999124 C4.10149373,8.83227442 4.15198194,8.34765786 4.0476084,7.87815262 C3.89872088,7.21208307 3.50102371,6.67123834 2.92409923,6.34804349 C2.83073704,6.27623543 2.52054496,5.99978025 2.46373107,5.44710417 C2.41230573,4.94479917 2.51386786,3.20617723 5.410673,0.0544710417 C4.72094076,0.275518043 4.12375071,0.621555586 3.62683424,1.09340366 C0.489536524,4.07162251 -0.0263569557,6.08447393 0.0932450521,7.24851424 Z" id="Shape"></path>
                    </g>
                    <g id="Group" opacity="0.19" transform="translate(12.182771, 41.819703)" fill-rule="nonzero" fill="#202121">
                        <path d="M5.48950959,5.88404393 C2.92222496,5.88404393 1.04150975,5.47217257 0.864859572,5.43210999 C0.344397554,5.31379655 0.0181570139,4.7960288 0.136470459,4.27580106 C0.254666763,3.75557333 0.771965946,3.43026993 1.2919594,3.54729481 L1.2919594,3.54729481 C1.38333018,3.5679118 10.4911226,5.54339492 15.7575938,0.346506111 C16.1374854,-0.0281140861 16.7492011,-0.0240141152 17.1241727,0.355877473 C17.4987929,0.735534777 17.4946929,1.34748472 17.1148013,1.72210491 C13.6552459,5.13585781 8.9492993,5.88404393 5.48950959,5.88404393 Z" id="Shape"></path>
                    </g>
                    <g id="Group" opacity="0.19" transform="translate(31.979773, 17.571304)" fill-rule="nonzero" fill="#202121">
                        <path d="M2.36017752,18.3019186 C2.30289507,18.3019186 2.24467549,18.2969986 2.18633876,18.2861044 C1.66107392,18.1907508 1.31281068,17.687743 1.40851571,17.1625953 C2.9532676,8.66616703 0.108824941,1.41179569 0.0798908612,1.3396362 C-0.118430588,0.844242576 0.1226477,0.281726571 0.618158467,0.083522264 C1.11378638,-0.114682043 1.6760681,0.126630529 1.8742724,0.622141296 C2.00066865,0.93819048 4.95335054,8.4704227 3.30996507,17.5085157 C3.2250371,17.9748581 2.81820284,18.3019186 2.36017752,18.3019186 Z" id="Shape"></path>
                    </g>
                    <g id="Group" transform="translate(4.217113, 12.299913)" fill-rule="nonzero" fill="#202121" opacity="0.19">
                        <path d="M22.0781089,23.614778 L22.0789289,23.6150123 C22.3294957,23.679909 22.5551113,23.7449228 22.754487,23.8066566 C23.1397671,23.8674534 23.5697955,23.8362936 23.6950203,23.4438678 C23.9366843,22.686896 21.2835346,21.5044644 21.2835346,21.5044644 C19.5848581,20.7314442 17.7962165,20.3396041 15.9617724,20.3396041 C14.8047606,20.3396041 13.611669,20.4964573 12.4161175,20.8057122 C9.60845748,21.5321099 7.62571156,22.8968145 7.17412905,23.2265693 C6.11352516,22.7191101 4.88400246,22.4617491 3.51754073,22.4617491 C2.74323195,22.4617491 1.92300349,22.5448028 1.08004947,22.7085673 L0.107653521,22.8975174 L0.155330325,23.2034924 C0.300352153,24.13278 0.516830615,25.3592571 0.82772555,26.7767927 C0.994535794,26.810881 1.16942884,26.7977611 1.33202197,26.7353244 C2.13327342,26.4272409 2.98079597,26.2710906 3.85057551,26.2710906 C5.71079087,26.2710906 7.08018115,26.9882341 7.11075522,27.0042825 C7.24581997,27.0774963 7.39365321,27.1133417 7.54066645,27.1133417 C7.75679349,27.1133417 7.97104625,27.0357937 8.14008219,26.8853834 C10.9746849,24.3651898 14.2885157,23.0876389 17.9897351,23.0876389 C19.6321834,23.0878732 21.056279,23.3495685 22.0781089,23.614778 L22.0781089,23.614778 Z" id="Shape"></path>
                        <path d="M20.2804474,0.027996944 L20.2804474,0.027996944 C20.4096551,0.0394768625 20.5342942,0.0722766296 20.6535448,0.127684808 C21.3039173,0.430965511 21.7153201,1.33588766 21.8547191,1.80914144 C21.7051287,2.64717549 19.6312463,14.8500945 21.2834174,21.5044644 C21.2834174,21.5044644 21.3114144,21.5169986 21.3599112,21.5394899 C21.3610826,21.5398413 21.3623711,21.5405442 21.3633083,21.5410127 C21.3763111,21.546987 21.390251,21.5538984 21.4065337,21.561044 C21.4099308,21.5628012 21.4127422,21.5640897 21.4164908,21.5658468 C21.4207079,21.5678383 21.424925,21.5701811 21.4293764,21.5721725 C21.5039959,21.6073151 21.6032152,21.6549919 21.71942,21.7137972 C21.7207086,21.7143829 21.7221143,21.7150858 21.7234029,21.7156715 C21.7665111,21.7374599 21.8118451,21.760654 21.8591705,21.7852539 C21.8611619,21.7863081 21.862919,21.787011 21.8646762,21.7879481 C21.9621383,21.8384363 22.0668633,21.8941959 22.1751025,21.9542898 C22.1774454,21.9558126 22.1794368,21.9568669 22.1815453,21.9579212 C22.7895124,22.2955245 23.509233,22.7663183 23.6740519,23.1774868 C23.6742862,23.1774868 23.6744033,23.1777211 23.6746376,23.1779554 C23.6744033,23.1779554 23.6744033,23.1779554 23.6742862,23.1779554 C23.6769804,23.1847496 23.6797918,23.1915439 23.682369,23.1983381 C23.6990031,23.1955267 23.7103659,23.1936524 23.7103659,23.1936524 C21.359794,17.3192141 23.4373078,6.27529829 23.8881875,2.98981591 C24.3391843,-0.29554933 20.2804474,0.027996944 20.2804474,0.027996944 Z" id="Shape"></path>
                    </g>
                    <path d="M14.2242047,58.2458264 L13.823579,57.8131037 C10.7705064,54.5154386 8.33196083,49.8208548 6.57611901,43.8603171 C5.43773281,39.996036 4.92066791,36.7126621 4.7137951,35.0999679 L4.68474387,34.8750552 C4.61879291,34.3605674 4.18103317,33.975053 3.66256256,33.975053 L1.08789799,33.975053 C0.518587746,33.975053 0.0570481663,34.4365926 0.0570481663,35.0059028 L0.0570481663,58.9459842 C0.0570481663,59.5150602 0.518587746,59.9768341 1.08789799,59.9768341 L13.4678186,59.9768341 C13.8773472,59.9768341 14.2482188,59.7342329 14.4121005,59.3587927 C14.5763336,58.9831183 14.5026513,58.5462957 14.2242047,58.2458264 Z" id="Shape" fill="#485D6D" fill-rule="nonzero"></path>
                    <path d="M1.97068029,45.000929 C0.933387657,41.4804597 0.358571739,38.3924788 0.0570481663,36.3988387 L0.0570481663,58.9461014 C0.0570481663,59.5151773 0.518587746,59.9769512 1.08789799,59.9769512 L9.52985518,59.9769512 C6.36901191,56.3364113 3.82749853,51.3037557 1.97068029,45.000929 Z" id="Shape" fill="#202121" fill-rule="nonzero" opacity="0.19"></path>
                </g>
            </g>
        </g>
    </g>
</svg>