<?xml version="1.0" encoding="UTF-8"?>
<svg width="48px" height="33px" viewBox="0 0 48 33" version="1.1" xmlns="http://www.w3.org/2000/svg" xmlns:xlink="http://www.w3.org/1999/xlink">
    <!-- Generator: Sketch 46.2 (44496) - http://www.bohemiancoding.com/sketch -->
    <title>icons/sport/hud/minuteur</title>
    <desc>Created with Sketch.</desc>
    <defs></defs>
    <g id="Symbols" stroke="none" stroke-width="1" fill="none" fill-rule="evenodd">
        <g id="card/active/sport" transform="translate(-20.000000, -482.000000)">
            <g id="icons/sport/hud/minuteur" transform="translate(20.000000, 481.855112)">
                <g id="runer-silhouette-running-fast" transform="translate(0.328425, 0.863112)">
                    <path d="M14.4541853,3.22018532 L28.9130777,3.22018532 C29.2930136,3.22018532 29.600901,2.91220184 29.600901,2.53226589 C29.600901,2.15232995 29.2930136,1.84434647 28.9130777,1.84434647 L14.4541853,1.84434647 C14.0742493,1.84434647 13.7662658,2.15232995 13.7662658,2.53226589 C13.7662658,2.91220184 14.0742493,3.22018532 14.4541853,3.22018532 Z" id="Shape" fill="#96CF57" fill-rule="nonzero" class="SVG-inside"></path>
                    <path d="M1.52291393,9.94625243 L15.9817103,9.94625243 C16.3616462,9.94625243 16.6696297,9.63826895 16.6696297,9.258333 C16.6696297,8.87839705 16.3616462,8.57050964 15.9817103,8.57050964 L1.52291393,8.57050964 C1.14297798,8.57050964 0.834994505,8.87839705 0.834994505,9.258333 C0.834994505,9.63826895 1.14297798,9.94625243 1.52291393,9.94625243 Z" id="Shape" fill="#96CF57" fill-rule="nonzero" class="SVG-inside"></path>
                    <path d="M5.40440875,17.0240125 C5.40440875,17.4039484 5.71239223,17.7120279 6.09232818,17.7120279 L20.5511245,17.7120279 C20.9310605,17.7120279 21.239044,17.4039484 21.239044,17.0240125 C21.239044,16.6440765 20.9310605,16.3361891 20.5511245,16.3361891 L6.09232818,16.3361891 C5.71239223,16.3361891 5.40440875,16.6440765 5.40440875,17.0240125 Z" id="Shape" fill="#96CF57" fill-rule="nonzero" class="SVG-inside"></path>
                    <path d="M13.6792312,25.0190944 L0.687919426,25.0190944 C0.307983477,25.0190944 0,25.3269819 0,25.7069178 C0,26.0868538 0.307983477,26.3948372 0.687919426,26.3948372 L13.6792312,26.3948372 C14.0591671,26.3948372 14.3671506,26.0868538 14.3671506,25.7069178 C14.3671506,25.3269819 14.0591671,25.0190944 13.6792312,25.0190944 Z" id="Shape" fill="#96CF57" fill-rule="nonzero" class="SVG-inside"></path>
                    <path d="M37.0549466,7.53320284 C39.1299444,7.53320284 40.8121336,5.85082148 40.8121336,3.77572757 C40.8121336,1.70063365 39.1298483,0.0183483606 37.0549466,0.0183483606 C34.9794684,0.0183483606 33.296991,1.70072972 33.296991,3.77572757 C33.2968949,5.85082148 34.9793723,7.53320284 37.0549466,7.53320284 Z" id="Shape" fill="#000000" fill-rule="nonzero"></path>
                    <path d="M43.2354621,6.45122595 C41.0779447,9.47332583 38.1888945,9.82328959 35.0800481,7.97769428 C34.8684176,7.85223376 33.929481,7.33492527 33.721597,7.21138605 C28.7203719,4.24240996 23.7250067,5.40671431 20.3749419,10.0981307 C18.9513588,12.0934909 22.2438809,13.9848131 23.6515172,12.0127005 C25.3824112,9.58879562 27.5833499,8.88742713 29.9904435,9.65517634 C28.7579332,11.7945375 27.6803753,13.92093 26.1598629,16.9419732 C24.6389664,19.9630164 21.2810242,22.3755856 18.0544987,20.4886825 C15.7263703,19.1279258 13.6268759,22.4725149 15.9479916,23.8290448 C20.352943,26.4034831 25.5178625,24.8226421 28.1545507,21.4761317 C28.2460043,21.5250286 28.3426454,21.5691223 28.4487008,21.6062033 C30.6026639,22.3566609 33.426198,24.3546148 34.2865536,25.0627078 C35.146621,25.7708008 36.6243845,29.3780309 37.5019357,31.1904839 C38.5665249,33.3896934 42.004585,31.7879104 40.9360571,29.5793825 C39.941307,27.5230213 38.2716062,23.4188484 36.9692568,22.3804849 C35.9245531,21.5476999 33.8963387,19.9977918 32.1761079,19.1185114 C33.3399319,16.8642568 34.5516922,14.6343066 35.8273356,12.4428783 C39.8935628,13.6887416 43.7585345,12.2211609 46.5111729,8.36531541 C47.9359087,6.3702434 44.6441551,4.47892129 43.2354621,6.45122595 Z" id="Shape" fill="#000000" fill-rule="nonzero"></path>
                </g>
            </g>
        </g>
    </g>
</svg>