<?xml version="1.0" encoding="UTF-8"?>
<svg width="54px" height="50px" viewBox="0 0 54 50" version="1.1" xmlns="http://www.w3.org/2000/svg" xmlns:xlink="http://www.w3.org/1999/xlink">
    <!-- Generator: Sketch 46.2 (44496) - http://www.bohemiancoding.com/sketch -->
    <title>icon/sport</title>
    <desc>Created with Sketch.</desc>
    <defs></defs>
    <g id="Page-1" stroke="none" stroke-width="1" fill="none" fill-rule="evenodd">
        <g id="work" transform="translate(-952.000000, -590.000000)" fill-rule="nonzero" fill="#FFFFFF">
            <g id="Group" transform="translate(360.000000, 384.291175)">
                <g id="icons/sport" transform="translate(592.855961, 206.194385)">
                    <path d="M51.1443375,8.70382367 L49.7397896,8.70382367 C49.7397896,6.07678167 49.7397896,6.64439768 49.7397896,4.00085222 C49.7397896,3.51451577 49.3455631,3.12028927 48.8592267,3.12028927 L46.4535374,3.12028927 C45.9672009,3.12028927 45.5729744,3.51451577 45.5729744,4.00085222 C45.5729744,6.64450083 45.5729744,6.07647223 45.5729744,8.70382367 L42.4980697,8.70382367 C42.626281,7.35693473 41.6344228,6.17755595 40.3203345,6.03861741 C38.9685976,5.89606874 37.7699304,6.88411049 37.6292384,8.21490856 L37.5775619,8.70372052 L33.3394724,8.70372052 C32.0892319,11.4031715 29.3908124,13.1460404 26.4017257,13.1460404 C23.3714834,13.1460404 20.6959625,11.3635632 19.4639789,8.70372052 L15.2413614,8.70372052 L15.189685,8.21490856 C15.0478583,6.87420841 13.8382576,5.89679077 12.4985889,6.03851426 C11.1862541,6.1774528 10.1924361,7.35549068 10.3208537,8.70392682 L7.2379035,8.70392682 C7.2379035,6.07688482 7.2379035,6.64450083 7.2379035,4.00095536 C7.2379035,3.51461891 6.84367701,3.12039242 6.35734056,3.12039242 L3.95165126,3.12039242 C3.46531482,3.12039242 3.07108832,3.51461891 3.07108832,4.00095536 C3.07108832,6.64460397 3.07108832,6.07657538 3.07108832,8.70392682 L1.6667467,8.70392682 C0.746162858,8.70382367 0,9.44998653 0,10.3705704 C0,11.2910511 0.746162858,12.0373171 1.6667467,12.0373171 L3.07119147,12.0373171 C3.07119147,14.6643591 3.07119147,14.0967431 3.07119147,16.7402885 C3.07119147,17.226625 3.46552111,17.6208515 3.95175441,17.6208515 L6.3574437,17.6208515 C6.84378015,17.6208515 7.23800664,17.2265218 7.23800664,16.7402885 C7.23800664,14.0966399 7.23800664,14.6646685 7.23800664,12.0373171 L10.6718617,12.0373171 C10.7773808,13.034642 11.523131,20.086469 11.6332916,21.1293847 C11.8545412,23.2221271 14.4909696,24.106919 15.909958,22.4823593 L19.3494862,18.5461801 L19.3494862,27.9102454 L10.449787,31.5260512 C9.41089395,31.9481273 8.67091989,32.8858335 8.50175939,33.9943505 L6.72619297,45.6346561 C6.46110609,47.3721614 7.65471911,48.9953802 9.39212126,49.260364 C11.1295234,49.5253477 12.7528454,48.3318378 13.0178291,46.5944357 L14.5208821,36.7415584 L22.7538413,33.3966157 L30.062194,33.3966157 L38.2951532,36.7415584 L39.7982061,46.5944357 C40.063293,48.3320441 41.6865118,49.5253477 43.423914,49.260364 C45.1613162,48.9952771 46.354826,47.3720583 46.0898423,45.6346561 L44.3141727,33.9942474 C44.1450122,32.8857303 43.4050382,31.9481273 42.3661451,31.5259481 L33.3958937,27.8813644 L33.3958937,18.4622187 L36.9085528,22.4822562 C38.2896864,24.0630817 40.9575745,23.2797861 41.1852191,21.1292816 C41.2952766,20.0881193 42.0415426,13.0327854 42.1468553,12.0372139 L45.5730776,12.0372139 C45.5730776,14.6642559 45.5730776,14.0966399 45.5730776,16.7401854 C45.5730776,17.2265218 45.9674072,17.6207483 46.4536405,17.6207483 L48.8593298,17.6207483 C49.3456663,17.6207483 49.7398928,17.2264187 49.7398928,16.7401854 C49.7398928,14.0965368 49.7398928,14.6645654 49.7398928,12.0372139 L51.1444407,12.0372139 C52.0649214,12.0372139 52.8111874,11.2910511 52.8111874,10.3704672 C52.8110842,9.44998653 52.0649214,8.70382367 51.1443375,8.70382367 Z M15.9115052,15.0418758 C15.7795806,13.7940076 15.724294,13.272395 15.5937104,12.0372139 L18.5368969,12.0372139 C17.4705668,13.2577482 16.9926884,13.8046318 15.9115052,15.0418758 Z M36.9071087,15.0418758 C35.6905971,13.6497055 37.2532689,15.4379589 34.2816139,12.0372139 L37.2248004,12.0372139 C36.9780736,14.3703911 37.038827,13.795658 36.9071087,15.0418758 Z" id="Shape"></path>
                    <circle id="Oval" cx="26.4017257" cy="5.50297686" r="5.49606604"></circle>
                </g>
            </g>
        </g>
    </g>
</svg>