<?xml version="1.0" encoding="UTF-8"?>
<svg width="60px" height="53px" viewBox="0 0 60 53" version="1.1" xmlns="http://www.w3.org/2000/svg" xmlns:xlink="http://www.w3.org/1999/xlink">
    <!-- Generator: Sketch 46.2 (44496) - http://www.bohemiancoding.com/sketch -->
    <title>menu/pasta</title>
    <desc>Created with Sketch.</desc>
    <defs></defs>
    <g id="Symbols" stroke="none" stroke-width="1" fill="none" fill-rule="evenodd">
        <g id="card/active/default" transform="translate(-20.000000, -85.000000)">
            <g id="icons/default" transform="translate(20.000000, 84.785755)">
                <g id="sun-umbrella" transform="translate(0.819958, 0.452761)">
                    <path d="M29.4655978,44.4505335 L39.6989562,18.7748375 C40.1271499,17.7004855 41.3452337,17.176586 42.4195857,17.6047798 C43.4939377,18.0329736 44.0178372,19.2510573 43.5896434,20.3254093 L33.8166886,44.8459402 L29.4655978,44.4505335 Z" id="Shape" fill="#90A4AE" fill-rule="nonzero"></path>
                    <path d="M33.4994396,22.1293545 C33.5038054,22.1191677 33.5081711,22.108981 33.5125369,22.0987943 C33.5081711,22.0992794 33.5038054,22.1002495 33.4999247,22.1007346 L33.4994396,22.1293545 Z" id="Shape" fill="#FFF9C5" fill-rule="nonzero"></path>
                    <path d="M42.4198166,17.6047798 C41.3454646,17.176586 40.1273808,17.7003701 39.699187,18.7748375 L37.0195413,25.4981381 C37.7022962,25.6072358 38.3813569,25.7935676 39.0499118,26.0601353 C39.7184667,26.3265875 40.3421127,26.6582674 40.9110367,27.0466319 L43.5898743,20.3255247 C44.0179527,19.2509419 43.4941686,18.0329736 42.4198166,17.6047798 Z" id="Shape" fill="#000000" fill-rule="nonzero" opacity="0.1"></path>
                    <path d="M46.1253265,8.30769848 L38.4037536,9.13764865 L33.4994396,14.8494006 L33.5002478,22.0975244 L33.5037112,22.096139 C33.5033648,22.0969471 33.5030185,22.0978707 33.5025567,22.0986788 C35.6443338,21.7009631 38.0290119,21.9095763 40.3372639,22.8295753 C42.6308541,23.7436865 44.4954424,25.2197948 45.7758677,26.9668578 L45.7982645,27.0077262 L49.8322218,23.0137136 L50.2822351,13.0473847 L46.1253265,8.30769848 Z" id="Shape" fill="#FFF9C5" fill-rule="nonzero"></path>
                    <path d="M53.2918291,48.9656748 C50.4818434,44.4739692 40.9648351,41.168484 29.6567784,41.168484 C18.3490681,41.168484 8.83240616,44.4737383 6.02207412,48.965213 L7.60081506,48.9656748 L11.0269427,51.1628666 L14.6294736,51.5544636 L17.1683892,50.087591 L21.1984213,48.6177168 L23.3610943,49.2049969 L27.962013,51.5544636 L30.996659,51.0649673 L34.9122829,49.6039826 L37.7511304,48.7156161 L41.3730565,49.6039826 L44.3098033,51.5544636 L49.0086212,50.9671835 L53.2918291,48.9656748 Z" id="Shape" fill="#FFCA28" fill-rule="nonzero"></path>
                    <path d="M49.3384539,50.8130615 L53.2919445,48.9656748 C50.4819588,44.4740847 40.9649505,41.168484 29.6568939,41.168484 C27.0569067,41.168484 24.5521635,41.3436175 22.2014269,41.6672161 C33.8664464,43.0050186 43.6228922,46.3597998 49.3384539,50.8130615 Z" id="Shape" fill="#000000" fill-rule="nonzero" opacity="0.1"></path>
                    <path d="M58.7275467,49.4478979 C55.9506943,47.5646072 52.362017,47.5646072 49.5851647,49.4478979 C47.4011339,50.9290859 44.5787953,50.9290859 42.3945336,49.4478979 C39.6176813,47.5646072 36.029004,47.5646072 33.2521517,49.4478979 C31.0681209,50.9290859 28.2456669,50.9290859 26.0615206,49.4478979 C23.2846683,47.5646072 19.695991,47.5646072 16.9191386,49.4478979 C14.7349924,50.9290859 11.9126538,50.9290859 9.7285076,49.4478979 C6.95165526,47.5646072 3.36297796,47.5646072 0.586125612,49.4478979 C0.188756229,49.7173518 0.0850846122,50.2579912 0.354538459,50.6553605 C0.623992305,51.0527299 1.16474715,51.1562861 1.56200109,50.8869477 C3.74603188,49.4057597 6.56848588,49.4056442 8.75263212,50.8869477 C11.5295999,52.770123 15.1182772,52.770123 17.8950141,50.8869477 C20.0790449,49.4057597 22.9014989,49.4056442 25.0856451,50.8869477 C27.8626129,52.770123 31.4512902,52.770123 34.2280271,50.8869477 C36.4120579,49.4057597 39.2345119,49.4056442 41.4186582,50.8869477 C42.8071421,51.8285353 44.3985822,52.2993292 45.9899069,52.2993292 C47.5812316,52.2993292 49.1726717,51.8285353 50.5610402,50.8869477 C52.7450709,49.4057597 55.5675249,49.4057597 57.7516712,50.8869477 C58.149156,51.156517 58.68968,51.0527299 58.9591338,50.6553605 C59.2285877,50.2581066 59.124916,49.7174672 58.7275467,49.4478979 Z" id="Shape" fill="#1EB8E8" fill-rule="nonzero"></path>
                    <g id="Group" transform="translate(21.126844, 6.926834)" fill-rule="nonzero" fill="#EF495B">
                        <path d="M12.3734038,15.1708057 C11.0921703,13.4091963 9.21776903,11.9202734 6.90963246,11.0002743 C4.60034142,10.0798135 2.21427797,9.87143128 0.0719236274,10.2698397 C0.0719236274,10.2698397 10.4674854,-4.41054617 24.9985979,1.38097983 C24.9985979,1.38097983 17.3782723,3.41920076 12.3727111,15.1793488 L12.3734038,15.1708057 Z" id="Shape"></path>
                        <path d="M24.676731,20.074427 C26.8185081,19.6769422 29.2031862,19.8855553 31.5114382,20.8055544 C33.8207293,21.7260152 35.6960542,23.2158617 36.9769412,24.978741 C36.9769412,24.978741 39.5294796,7.17239037 24.998367,1.38074893 C24.998367,1.38074893 29.1275683,8.10185606 24.6715359,20.0808921 L24.676731,20.074427 Z" id="Shape"></path>
                    </g>
                    <circle id="Oval" fill="#FFCA28" fill-rule="nonzero" cx="9.8932508" cy="10.0075436" r="4.73622282"></circle>
                    <g id="Group" fill-rule="nonzero" fill="#FF9800">
                        <path d="M9.89336625,3.6011456 C9.4132212,3.6011456 9.02404857,3.21185753 9.02404857,2.73182792 L9.02404857,0.983033206 C9.02404857,0.502888156 9.41333665,0.113715526 9.89336625,0.113715526 C10.3733959,0.113715526 10.7626839,0.503003603 10.7626839,0.983033206 L10.7626839,2.73182792 C10.7626839,3.21197297 10.3733959,3.6011456 9.89336625,3.6011456 Z" id="Shape"></path>
                        <path d="M15.0375796,5.73207067 C14.8151128,5.73207067 14.592646,5.64721695 14.4229385,5.47739407 C14.0834082,5.13786375 14.0834082,4.58741133 14.4229385,4.24788101 L15.6594939,3.01132568 C15.9990242,2.67179536 16.5494766,2.67179536 16.8888915,3.01132568 C17.2284218,3.350856 17.2284218,3.90130841 16.8888915,4.24083873 L15.6523361,5.47739407 C15.4825132,5.64721695 15.2600464,5.73207067 15.0375796,5.73207067 Z" id="Shape"></path>
                        <path d="M18.9171839,10.8763995 L17.1685047,10.8763995 C16.6883596,10.8763995 16.299187,10.4871114 16.299187,10.0070818 C16.299187,9.52705218 16.6884751,9.1377641 17.1685047,9.1377641 L18.9171839,9.1377641 C19.397329,9.1377641 19.7865016,9.52705218 19.7865016,10.0070818 C19.7865016,10.4871114 19.397329,10.8763995 18.9171839,10.8763995 Z" id="Shape"></path>
                        <path d="M16.2741349,17.2572836 C16.0516681,17.2572836 15.8290858,17.1724299 15.6594939,17.002607 L14.4229385,15.7660517 C14.0834082,15.4265213 14.0834082,14.8760689 14.4229385,14.5365386 C14.7624688,14.1970083 15.3129213,14.1970083 15.6523361,14.5365386 L16.8888915,15.7730939 C17.2284218,16.1126242 17.2284218,16.6630767 16.8888915,17.002607 C16.7190686,17.1723144 16.4967172,17.2572836 16.2741349,17.2572836 Z" id="Shape"></path>
                        <path d="M9.89336625,19.9002171 C9.4132212,19.9002171 9.02404857,19.5109291 9.02404857,19.0308995 L9.02404857,17.2821047 C9.02404857,16.8019597 9.41333665,16.4127871 9.89336625,16.4127871 C10.3733959,16.4127871 10.7626839,16.8020751 10.7626839,17.2821047 L10.7626839,19.0308995 C10.7626839,19.51116 10.3733959,19.9002171 9.89336625,19.9002171 Z" id="Shape"></path>
                        <path d="M3.51236668,17.2572836 C3.28989986,17.2572836 3.06743303,17.1724299 2.8977256,17.002607 C2.55819528,16.6630767 2.55819528,16.1126242 2.8977256,15.7730939 L4.13416549,14.5365386 C4.4736958,14.1970083 5.02414822,14.1970083 5.36356309,14.5365386 C5.70309341,14.8760689 5.70309341,15.4265213 5.36356309,15.7660517 L4.1271232,17.002607 C3.95741577,17.1723144 3.73494895,17.2572836 3.51236668,17.2572836 Z" id="Shape"></path>
                        <path d="M2.6181124,10.8763995 L0.86931768,10.8763995 C0.389172629,10.8763995 0,10.4871114 0,10.0070818 C0,9.52705218 0.389288076,9.1377641 0.86931768,9.1377641 L2.6181124,9.1377641 C3.09825745,9.1377641 3.48743008,9.52705218 3.48743008,10.0070818 C3.48743008,10.4871114 3.09825745,10.8763995 2.6181124,10.8763995 Z" id="Shape"></path>
                        <path d="M4.74892201,5.73207067 C4.52645519,5.73207067 4.30398837,5.64721695 4.13428093,5.47739407 L2.8977256,4.24095418 C2.55819528,3.90142386 2.55819528,3.35097144 2.8977256,3.01144113 C3.23725592,2.67191081 3.78770833,2.67191081 4.1271232,3.01144113 L5.36356309,4.24799646 C5.70309341,4.58752678 5.70309341,5.13797919 5.36356309,5.47750951 C5.1939711,5.64721695 4.97138883,5.73207067 4.74892201,5.73207067 Z" id="Shape"></path>
                    </g>
                </g>
            </g>
        </g>
    </g>
</svg>