<?xml version="1.0" encoding="UTF-8"?>
<svg width="51px" height="54px" viewBox="0 0 51 54" version="1.1" xmlns="http://www.w3.org/2000/svg" xmlns:xlink="http://www.w3.org/1999/xlink">
    <!-- Generator: Sketch 46.2 (44496) - http://www.bohemiancoding.com/sketch -->
    <title>night</title>
    <desc>Created with Sketch.</desc>
    <defs></defs>
    <g id="Symbols" stroke="none" stroke-width="1" fill="none" fill-rule="evenodd">
        <g id="card/active/menu" transform="translate(-42.000000, -83.000000)" fill-rule="nonzero">
            <g id="night" transform="translate(42.241419, 83.108800)">
                <path d="M43.4651187,47.4398088 C43.3368825,47.0558366 42.9799462,46.7935784 42.5726202,46.7977863 L42.5373789,46.7977863 C36.4425315,46.7977863 30.5350414,44.6216638 25.9009713,40.6696964 L23.8814883,38.7495202 C19.3676592,33.9689094 16.8823602,27.7151081 16.8823602,21.1363506 C16.8823602,13.6397419 20.1489636,6.53825632 25.8447956,1.65276331 C26.1519733,1.38934791 26.2559088,0.958773139 26.1028459,0.584163621 C25.9496779,0.209659301 25.574332,-0.0246162952 25.1701618,0.00210395685 C11.0717574,0.944992221 0.0277722305,12.7604983 0.0277722305,26.9012975 C0.0277722305,41.7671203 12.1219474,53.8612955 26.987665,53.8612955 C32.8648581,53.8612955 38.4494959,52.0036068 43.1376378,48.4891573 C43.4613316,48.2464658 43.5933548,47.8235705 43.4651187,47.4398088 Z" id="Shape" fill="#3A5D74"></path>
                <path d="M28.7885468,52.6109139 C13.9228293,52.6109139 1.8286541,40.5167387 1.8286541,25.650916 C1.8286541,16.9131832 6.04645641,9.06468771 12.5948117,4.11912673 C5.02824649,8.92456419 0.0277722305,17.3863631 0.0277722305,26.9012975 C0.0277722305,41.7671203 12.1219474,53.8612955 26.987665,53.8612955 C32.8648581,53.8612955 38.4494959,52.0036068 43.1376378,48.4891573 C43.1519447,48.4783219 43.1638321,48.4654877 43.1774026,48.4540212 C38.8784927,51.1796973 33.9462919,52.6109139 28.7885468,52.6109139 Z" id="Shape" fill="#231F20" opacity="0.1"></path>
                <path d="M43.6513189,16.3329119 C43.6029279,16.1837413 43.4739553,16.075072 43.3188937,16.0525596 L39.6613751,15.5211001 L38.0259694,12.2070525 C37.9564336,12.0665082 37.8132594,11.9774056 37.6566198,11.9774056 C37.4996646,11.9774056 37.3564903,12.066403 37.2872702,12.2070525 L35.6514437,15.5211001 L31.9941355,16.0525596 C31.8390739,16.075072 31.7101013,16.1837413 31.6614999,16.3329119 C31.6131089,16.4819772 31.6535049,16.6455599 31.7656458,16.755176 L34.4124235,19.3347323 L33.7878639,22.9773128 C33.7612489,23.1317432 33.824578,23.287962 33.951657,23.3801154 C34.0783152,23.4722687 34.2464213,23.4843664 34.3851773,23.4113591 L37.6566198,21.69169 L40.9276415,23.4113591 C40.9880251,23.4432341 41.0537737,23.4586981 41.1194172,23.4586981 C41.2048378,23.4586981 41.2896273,23.4322935 41.3616878,23.3801154 C41.4885564,23.287962 41.5520959,23.1317432 41.5254809,22.9773128 L40.9009213,19.3347323 L43.547173,16.755176 C43.6596295,16.6455599 43.6999203,16.4819772 43.6513189,16.3329119 Z" id="Shape" fill="#FFD960"></path>
                <g id="Group" opacity="0.1" transform="translate(31.559353, 15.779676)" fill="#231F20">
                    <path d="M4.04917017,6.57128845 L4.67372976,2.92870794 L2.02695203,0.34915164 C1.94752766,0.27162083 1.90502773,0.166843779 1.90366016,0.059541979 L0.43499308,0.272988402 C0.27993146,0.29550074 0.150958904,0.404170112 0.102357501,0.553340653 C0.0539664933,0.702405996 0.0943624649,0.865988642 0.206503365,0.975604794 L2.85328109,3.5551611 L2.2287215,7.1977416 C2.20210644,7.35217203 2.26543554,7.50839083 2.39251454,7.60054414 C2.51917274,7.69269745 2.68727889,7.7047952 2.82603485,7.6317879 L4.16194225,6.9295923 C4.06968374,6.83617661 4.02655263,6.70331174 4.04917017,6.57128845 Z" id="Shape"></path>
                </g>
                <circle id="Oval" fill="#FFD960" cx="35.9465237" cy="34.4317799" r="2.69643111"></circle>
                <path d="M34.9601887,34.4314643 C34.9601887,33.2413611 35.7314993,32.232093 36.8014665,31.8744204 C36.5325808,31.7844762 36.2451803,31.7351384 35.9462081,31.7351384 C34.4569222,31.7351384 33.2496718,32.9423889 33.2496718,34.4315695 C33.2496718,35.9207502 34.4569222,37.1280006 35.9462081,37.1280006 C36.2451803,37.1280006 36.532686,37.0785576 36.8014665,36.9887187 C35.7316045,36.6308356 34.9601887,35.6215675 34.9601887,34.4314643 Z" id="Shape" fill="#231F20" opacity="0.1"></path>
                <path d="M50.0465061,28.7845493 C50.0465061,29.8245352 49.203661,30.6675907 48.1634647,30.6675907 C47.1235841,30.6675907 46.2806337,29.8245352 46.2806337,28.7845493 C46.2806337,27.7444583 47.1236893,26.9016131 48.1634647,26.9016131 C49.203661,26.9016131 50.0465061,27.7445635 50.0465061,28.7845493 Z" id="Shape" fill="#FFD960"></path>
                <path d="M48.1633595,28.7845493 C48.1633595,28.087824 48.5425978,27.4810429 49.1048802,27.1553503 C48.8277891,26.9948184 48.5068305,26.9014027 48.1632543,26.9014027 C47.1233737,26.9014027 46.2804233,27.7442479 46.2804233,28.7843389 C46.2804233,29.8243248 47.1234789,30.6673803 48.1632543,30.6673803 C48.5068305,30.6673803 48.8276839,30.5739646 49.1048802,30.4134327 C48.5425978,30.0880558 48.1633595,29.4812746 48.1633595,28.7845493 Z" id="Shape" fill="#231F20" opacity="0.1"></path>
            </g>
        </g>
    </g>
</svg>