<?xml version="1.0" encoding="UTF-8"?>
<svg width="59px" height="40px" viewBox="0 0 59 40" version="1.1" xmlns="http://www.w3.org/2000/svg" xmlns:xlink="http://www.w3.org/1999/xlink">
    <!-- Generator: Sketch 46.2 (44496) - http://www.bohemiancoding.com/sketch -->
    <title>icons/sport/hud/minuteur copy</title>
    <desc>Created with Sketch.</desc>
    <defs></defs>
    <g id="Symbols" stroke="none" stroke-width="1" fill="none" fill-rule="evenodd">
        <g id="card/active/school-work" transform="translate(-30.000000, -411.000000)">
            <g id="icons/work-school/hud/minuteur" transform="translate(28.850262, 409.936952)">
                <g id="Group-2" transform="translate(24.000000, 19.000000) scale(-1, 1) translate(-24.000000, -19.000000) ">
                    <g id="worker-running" transform="translate(0.850262, 0.855112)"></g>
                    <g id="Group" transform="translate(32.801067, 23.000000) scale(-1, 1) translate(-32.801067, -23.000000) translate(17.801067, 8.000000)" fill-rule="nonzero" fill="#EF645E">
                        <path d="M14.5714604,2 L29.0303528,2 C29.4102887,2 29.7181761,1.69201652 29.7181761,1.31208057 C29.7181761,0.932144625 29.4102887,0.624161148 29.0303528,0.624161148 L14.5714604,0.624161148 C14.1915244,0.624161148 13.8835409,0.932144625 13.8835409,1.31208057 C13.8835409,1.69201652 14.1915244,2 14.5714604,2 Z" id="Shape"></path>
                        <path d="M1.64018904,11 L16.0989854,11 C16.4789213,11 16.7869048,10.6920165 16.7869048,10.3120806 C16.7869048,9.93214462 16.4789213,9.62425721 16.0989854,9.62425721 L1.64018904,9.62425721 C1.26025309,9.62425721 0.95226961,9.93214462 0.95226961,10.3120806 C0.95226961,10.6920165 1.26025309,11 1.64018904,11 Z" id="Shape"></path>
                        <path d="M5.52168386,19.5979736 C5.52168386,19.9779095 5.82966733,20.2859891 6.20960328,20.2859891 L20.6683996,20.2859891 C21.0483356,20.2859891 21.3563191,19.9779095 21.3563191,19.5979736 C21.3563191,19.2180376 21.0483356,18.9101502 20.6683996,18.9101502 L6.20960328,18.9101502 C5.82966733,18.9101502 5.52168386,19.2180376 5.52168386,19.5979736 Z" id="Shape"></path>
                        <path d="M27.1182327,28.5070713 L14.1269209,28.5070713 C13.7469849,28.5070713 13.4390015,28.8149587 13.4390015,29.1948946 C13.4390015,29.5748306 13.7469849,29.8828141 14.1269209,29.8828141 L27.1182327,29.8828141 C27.4981686,29.8828141 27.8061521,29.5748306 27.8061521,29.1948946 C27.8061521,28.8149587 27.4981686,28.5070713 27.1182327,28.5070713 Z" id="Shape"></path>
                    </g>
                </g>
                <g id="Page-1" transform="translate(26.000000, 1.000000)">
                    <path d="M32.3347,26.9702 C30.9937,25.9962 29.6877,25.0212 28.3067,24.1612 C29.6357,17.1782 25.9697,10.2242 22.3567,8.0782 C21.5457,8.2132 21.6847,8.8672 21.9387,9.3882 C21.5197,9.0822 20.8287,8.5872 20.5417,8.4292 L20.6247,8.3672 L20.3537,8.0002 L19.3517,8.7402 L19.6237,9.1082 L19.9687,8.8522 L20.7787,9.5612 C19.6437,9.3292 17.8507,9.1572 15.2517,9.4202 C11.4547,10.8242 8.2747,13.3472 5.7547,16.6522 C5.3187,17.2242 5.1977,17.7922 5.2947,18.3022 L5.4607,18.7872 C5.9037,19.6822 7.0317,20.2882 8.1507,20.2092 L8.5937,20.1392 C9.1347,20.0082 9.6497,19.7002 10.0557,19.1662 C11.2937,17.5452 12.7907,16.2492 14.4777,15.2722 C13.9107,16.5552 13.5297,17.9542 13.3447,19.4882 C13.1827,20.8382 14.6007,21.9792 15.8367,21.9792 C17.3177,21.9792 18.1667,20.8352 18.3287,19.4882 C18.4807,18.2172 18.9507,17.0522 19.6387,16.0232 C21.6087,18.8232 20.7397,23.6702 20.7737,23.7072 C18.7427,27.4422 15.9747,32.5392 12.1277,34.1952 C10.8817,34.7342 10.6127,36.5412 11.2357,37.6042 C11.9827,38.8822 13.3977,39.0352 14.6447,38.4972 C18.7407,36.7352 21.9747,31.7472 24.3297,27.5682 C25.6087,28.1612 26.7907,28.9952 27.9357,29.8582 C26.8017,31.9922 25.4497,33.9822 23.5847,35.5812 C21.1417,37.6782 24.6827,41.1862 27.1077,39.1052 C29.8387,36.7622 31.7217,33.6102 33.2277,30.3792 C33.8467,29.0502 33.5137,27.8262 32.3347,26.9702" id="Fill-1" fill="#010002"></path>
                    <path d="M7.9846,20.6176 L4.8776,19.3476 L5.1566,18.6626 L5.4606,18.7876 L5.2946,18.3016 L4.9456,18.1596 L4.5196,19.2006 L2.5606,18.3996 C2.3656,18.3206 2.1436,18.4126 2.0666,18.6066 L0.0276,23.5886 C-0.0514,23.7826 0.0436,24.0046 0.2336,24.0856 L7.9746,27.2516 C8.1676,27.3306 8.3906,27.2366 8.4696,27.0446 L10.5066,22.0606 C10.5856,21.8676 10.4926,21.6466 10.2986,21.5666 L8.3386,20.7646 L8.5936,20.1386 L8.1506,20.2086 L7.9846,20.6176 Z" id="Fill-4" fill="#EF645E"></path>
                    <circle id="Oval" fill="#010002" fill-rule="nonzero" cx="16.4891281" cy="4.76429961" r="3.90918716"></circle>
                </g>
            </g>
        </g>
    </g>
</svg>