<?xml version="1.0" encoding="UTF-8"?>
<svg width="55px" height="48px" viewBox="0 0 55 48" version="1.1" xmlns="http://www.w3.org/2000/svg" xmlns:xlink="http://www.w3.org/1999/xlink">
    <!-- Generator: Sketch 46.2 (44496) - http://www.bohemiancoding.com/sketch -->
    <title>icon/study copy</title>
    <desc>Created with Sketch.</desc>
    <defs></defs>
    <g id="Page-1" stroke="none" stroke-width="1" fill="none" fill-rule="evenodd">
        <g id="work" transform="translate(-952.000000, -501.000000)" fill="#FFFFFF">
            <g id="Group" transform="translate(360.000000, 384.291175)">
                <g id="Group-2" transform="translate(7.000000, 0.000000)">
                    <g id="icons/alterance" transform="translate(584.000000, 114.849061)">
                        <g id="work-briefcase" transform="translate(1.333751, 1.785108)">
                            <path d="M49.2058931,9.97315181 L38.2712502,9.97315181 L38.2712502,5.02297427 L32.8039287,0.0727967285 L21.8692858,0.0727967285 L16.4019644,5.02297427 L16.4019644,9.97315181 L5.46732145,9.97315181 C2.46029465,9.97315181 0,12.2007317 0,14.9233294 L0,42.1493058 C0,44.8719035 2.46029465,47.0994834 5.46732145,47.0994834 L49.2058931,47.0994834 C52.2129199,47.0994834 54.6732145,44.8719035 54.6732145,42.1493058 L54.6732145,14.9233294 C54.6732145,12.2007317 52.2129199,9.97315181 49.2058931,9.97315181 Z M32.8039287,9.97315181 L21.8692858,9.97315181 L21.8692858,5.02297427 L32.8039287,5.02297427 L32.8039287,9.97315181 Z" id="Shape" fill-rule="nonzero"></path>
                        </g>
                    </g>
                </g>
            </g>
        </g>
    </g>
</svg>