<?xml version="1.0" encoding="UTF-8"?>
<svg width="47px" height="50px" viewBox="0 0 47 50" version="1.1" xmlns="http://www.w3.org/2000/svg" xmlns:xlink="http://www.w3.org/1999/xlink">
    <!-- Generator: Sketch 46.2 (44496) - http://www.bohemiancoding.com/sketch -->
    <title>menu/pasta</title>
    <desc>Created with Sketch.</desc>
    <defs></defs>
    <g id="Symbols" stroke="none" stroke-width="1" fill="none" fill-rule="evenodd">
        <g id="card/active/school-work" transform="translate(-31.000000, -86.000000)">
            <g id="icons/work-school" transform="translate(30.850262, 84.785755)">
                <g id="geek" transform="translate(0.139397, 0.853682)">
                    <g id="Group" transform="translate(24.442157, 25.025911) scale(-1, 1) rotate(-180.000000) translate(-24.442157, -25.025911) translate(0.023552, 0.607307)" fill-rule="nonzero">
                        <g transform="translate(9.420824, 0.000000)" id="Shape">
                            <path d="M37.5497577,0.0471041224 L37.5497577,6.74637016 C37.5497577,11.1866403 33.950885,14.785513 29.5106149,14.785513 L8.07305777,14.785513 C3.63408304,14.785513 0.0339149681,11.1866403 0.0339149681,6.74637016 L0.0339149681,0.0471041224 L37.5497577,0.0471041224 Z" fill="#77B255"></path>
                            <path d="M12.9496298,14.6429052 C12.9496298,13.4451652 16.1117295,11.9739857 18.7913653,11.9739857 C21.4710011,11.9739857 24.6331008,13.4451652 24.6331008,14.6429052 L24.6331008,19.7571176 L12.9496298,19.7571176 L12.9496298,14.6429052 Z" fill="#F7DECE"></path>
                            <path d="M12.9391491,17.5020077 C14.5684807,15.6610608 16.5888943,15.1625815 18.7861838,15.1625815 C20.982178,15.1625815 23.0027094,15.6623562 24.6332185,17.5020077 L24.6332185,22.1794471 L12.9390314,22.1794471 L12.9390314,17.5020077 L12.9391491,17.5020077 Z" fill="#EEC2AD"></path>
                            <g transform="translate(5.534734, 16.015402)" fill="#F7DECE">
                                <path d="M4.4734785,14.9342442 C4.4734785,12.9941432 3.49006219,11.4212188 2.27748432,11.4212188 C1.06490645,11.4212188 0.0814901317,12.9941432 0.0814901317,14.9342442 C0.0814901317,16.8743453 1.06490645,18.4486828 2.27748432,18.4486828 C3.49006219,18.4486828 4.4734785,16.8743453 4.4734785,14.9342442"></path>
                                <path d="M26.4318895,14.9342442 C26.4318895,12.9941432 25.4497685,11.4212188 24.2358953,11.4212188 C23.0233174,11.4212188 22.0411965,12.9941432 22.0411965,14.9342442 C22.0411965,16.8743453 23.0233174,18.4486828 24.2358953,18.4486828 C25.4497685,18.4486828 26.4318895,16.8743453 26.4318895,14.9342442"></path>
                                <path d="M1.83823838,13.5625722 C1.83823838,21.05095 6.95115534,27.1232602 13.2578085,27.1232602 C19.5644617,27.1232602 24.6759655,21.0510678 24.6759655,13.5625722 C24.6759655,6.07407658 19.5644617,0.00188416489 13.2578085,0.00188416489 C6.95115534,0.00188416489 1.83823838,6.07419434 1.83823838,13.5625722"></path>
                            </g>
                            <path d="M18.7918363,20.410334 C15.1019349,20.410334 13.9683742,21.3548894 13.7793689,21.5466032 C13.4363331,21.8896389 13.4363331,22.4457031 13.7793689,22.7886211 C14.1116885,23.1209407 14.6436118,23.1289484 14.9879429,22.8194743 C15.0575393,22.7698972 15.9540485,22.1669645 18.7917186,22.1669645 C21.7393768,22.1669645 22.5916081,22.8167658 22.5994981,22.8234782 C22.9425338,23.1651008 23.4797564,23.1490854 23.8227921,22.8033412 C24.1658279,22.4603054 24.1469862,21.8896389 23.8040682,21.5464854 C23.6152985,21.3550072 22.4818555,20.410334 18.7918363,20.410334" fill="#C1694F"></path>
                            <path d="M18.7918363,48.2817254 C26.3593491,48.2817254 31.0889563,42.0555025 31.0889563,37.4007909 C31.0889563,32.7489056 30.1429877,30.8864086 29.197137,32.7489056 C28.2511684,34.6086941 27.3053176,36.4710733 27.3053176,36.4710733 C27.3053176,36.4710733 21.6296242,36.4710733 19.7378049,38.3334525 C19.7378049,38.3334525 22.5755927,32.7489056 16.900017,38.3334525 C16.900017,38.3334525 17.8459856,34.6086941 12.1702921,39.2632879 C12.1702921,39.2632879 9.33250424,37.4009087 8.38653571,32.7489056 C8.12393022,31.4558974 6.49471639,32.7489056 6.49471639,37.4007909 C6.49471639,42.0555025 10.2784728,48.2817254 18.7918363,48.2817254" fill="#292F33"></path>
                            <g transform="translate(12.011551, 29.440076)" fill="#662113">
                                <path d="M1.42089585,0.0837275775 L1.42089585,0.0837275775 C0.683951857,0.0837275775 0.0810190905,0.686660344 0.0810190905,1.42360434 L0.0810190905,2.7634811 C0.0810190905,3.50042509 0.683951857,4.10335786 1.42089585,4.10335786 C2.15783985,4.10335786 2.76077261,3.50042509 2.76077261,2.7634811 L2.76077261,1.42360434 C2.76077261,0.686660344 2.15783985,0.0837275775 1.42089585,0.0837275775"></path>
                                <path d="M12.1396744,0.0837275775 L12.1396744,0.0837275775 C11.4027304,0.0837275775 10.7997977,0.686660344 10.7997977,1.42360434 L10.7997977,2.7634811 C10.7997977,3.50042509 11.4027304,4.10335786 12.1396744,4.10335786 C12.8766184,4.10335786 13.4795512,3.50042509 13.4795512,2.7634811 L13.4795512,1.42360434 C13.4795512,0.686660344 12.8766184,0.0837275775 12.1396744,0.0837275775"></path>
                            </g>
                            <path d="M19.7968028,25.8392018 L17.7869876,25.8392018 C17.233632,25.8392018 16.782139,26.2906949 16.782139,26.8440505 C16.782139,27.3974062 17.233632,27.8488992 17.7869876,27.8488992 L19.7968028,27.8488992 C20.3501585,27.8488992 20.8016515,27.3974062 20.8016515,26.8440505 C20.8016515,26.2906949 20.3501585,25.8392018 19.7968028,25.8392018" fill="#C1694F"></path>
                        </g>
                        <g id="Shape">
                            <g transform="translate(1.413124, 0.000000)" fill="#E1E8ED">
                                <path d="M42.8778227,1.38698088 C42.8778227,0.646033038 42.2788938,0.0471041224 41.537946,0.0471041224 L28.1394139,0.0471041224 C27.3984661,0.0471041224 26.7995371,0.646033038 26.7995371,1.38698088 C26.7995371,2.12792873 27.3984661,2.72685764 28.1394139,2.72685764 L41.537946,2.72685764 C42.2788938,2.72685764 42.8778227,2.12792873 42.8778227,1.38698088"></path>
                                <path d="M25.7816171,18.8050255 L3.69944001,18.8050255 C1.65759407,18.8050255 -0.960570815,17.7719143 0.379305945,14.0740052 L4.49526416,2.71873218 C4.49526416,2.71873218 5.02718746,0.0471041224 8.04185129,0.0471041224 L34.8389155,0.0471041224 L29.4795262,15.1069986 C28.8927266,16.8796445 27.823463,18.8050255 25.7816171,18.8050255"></path>
                            </g>
                            <path d="M25.854864,18.8050255 L3.77268692,18.8050255 C1.73084098,18.8050255 -0.887323905,17.7719143 0.452552856,14.0740052 L4.56851107,2.71873218 C4.56851107,2.71873218 5.10043437,0.0471041224 8.1150982,0.0471041224 L34.9121624,0.0471041224 L29.5527731,15.1069986 C28.9659735,16.8796445 27.8967099,18.8050255 25.854864,18.8050255" fill="#99AAB5"></path>
                            <g transform="translate(3.061768, 4.239371)" fill="#E1E8ED">
                                <path d="M15.7981338,4.80732897 C16.5002208,2.70106814 15.9307319,0.613648954 14.5266758,0.146022779 C13.1225019,-0.321603395 11.4155663,1.00484869 10.7134793,3.11110952 C10.0113924,5.21866572 10.5808812,7.30478954 11.9849374,7.77241571 C13.3891113,8.24121949 15.0961647,6.91347204 15.7981338,4.80732897"></path>
                                <path d="M22.4712571,10.8810523 L1.0335822,10.8810523 C0.478931164,10.8810523 0.0287335146,11.3312499 0.0287335146,11.885901 C0.0287335146,12.440552 0.478931164,12.8907496 1.0335822,12.8907496 L22.4711393,12.8907496 C23.0257904,12.8907496 23.475988,12.440552 23.475988,11.885901 C23.475988,11.3312499 23.0260259,10.8810523 22.4712571,10.8810523"></path>
                            </g>
                        </g>
                    </g>
                </g>
            </g>
        </g>
    </g>
</svg>